<mxfile host="65bd71144e">
    <diagram name="Page-1" id="dvBUpR8_VCjb02eA5Gm2">
        <mxGraphModel dx="1086" dy="377" grid="1" gridSize="10" guides="1" tooltips="1" connect="1" arrows="1" fold="1" page="1" pageScale="1" pageWidth="827" pageHeight="1169" math="0" shadow="0">
            <root>
                <mxCell id="0"/>
                <mxCell id="1" parent="0"/>
                <mxCell id="7VhcuU38_8ilDAtrPy3k-53" value="" style="shape=image;verticalLabelPosition=bottom;labelBackgroundColor=default;verticalAlign=top;aspect=fixed;imageAspect=0;image=data:image/png,iVBORw0KGgoAAAANSUhEUgAAAgAAAAIACAYAAAD0eNT6AAAABHNCSVQICAgIfAhkiAAAAAlwSFlzAAAN1wAADdcBQiibeAAAABl0RVh0U29mdHdhcmUAd3d3Lmlua3NjYXBlLm9yZ5vuPBoAACAASURBVHic7N15vK5T+cfxz9dwMkaRORTKrDKEKKWERKZCpZLKUNL0U1RKk+YiFEUhIg1CyhwyRBEayBRCxkyZz/f3x7p3dqfjnL2fte7pea736/W89knnXmtx9tnrutdwXbJNCCGEEEbLLG0PIIQQQgjNiwAghBBCGEERAIQQQggjKAKAEEIIYQRFABBCCCGMoAgAQgghhBEUAUAIIYQwgiIACCGEEEZQBAAhhBDCCIoAIIQQQhhBEQCEEEIIIygCgBBCCGEERQAQQgghjKAIAEIIIYQRFAFACCGEMIIiAAghhBBGUAQAIYQQwgiKACCEEEIYQREAhBBCCCMoAoAQQghhBEUAEEIIIYygCABCCCGEERQBQAghhDCCIgAIIYQQRlAEACGEEMIIigAghBBCGEERAIQQQggjKAKAEEIIYQRFABBCCCGMoAgAQgghhBEUAUAIIYQwgmZrewChWZLmABYBFp3BZxHgYeC2mXzutO2G/xVC6D1J8wKLA0tUX8d/5gJmrT6zjfv1tP977NePAncD91RfZ/Tru20/3MS/Y+g+xc/v4SZpCvAK4HXVZ9mCzT8GnA+cDJxi+5qCbYfQa5IWBtYCVgeW5r8n/HnbGxk3A3+qPn8e+2r7gRbHFFoQAcAQkrQosClpwn8NME9DXV8LnEIKCM61/VhD/YbQKknzkCb6tcZ9lmx1UJN3E08FBH8C/ghcbntqq6MKtYkAYEhIWhnYFtgMeDGgdkfEg8DppIDg+Hi7CMNE0mKkIHsd0mS/IsN5puou4DTgVOA023e0PJ5QUAQAPSdpeWA/YBvan/Sfzt3AF4Fvxf5j6CtJKwFbVJ816e7ft7oY+AMpGPgVcJHtJ9sdUsgRAUBPSXoe8CngzaSDQH1wO/A54NDYHghdJ2lW4GU8Nekv0+6IOudfpFW+k4ETbP+75fGESYoAoGckLQ58HHgnMHvLwxnUTcBngO/bfqLtwYQwnqS1gHeTJv0FWx5OX9wHHAl82/af2x5MmJgIAHpC0nOAjwK7AXO0PJxSriWtYhwbB41CmyTNDWwP7Aq8pOXh9N15wCHAT2Klr9siAOgBSVsDhwPPbHssNbkI2Nb2LW0PJIwWSSsCuwA7AvO1PJxhcydwBPAd29e3PZjwvyIA6LBqD3J/4MNtj6UBdwLb2T6r7YGE4SZJwJbAHqQcGaFeBn4NfNL2JW0PJjwlAoCOqpKI/AjYoOWhNOlJYG/bX2p7IGH4jJv49wVWbXk4o8jA0cDHbP+j7cGECAA6SdK6wI+BxdoeS0t+Crw9cgeEEqqJ/w2kiX+1locT4N/Al4Avx82BdkUA0DGS3gd8lf6e8C/lamCrOFEcckgam/hf1PZYwv+4hXSw+ZioKdKOCAA6QtKcwPdIJ5FD8iDwDtsntD2Q0C+SVgMOIt3jD932O2BP2xe2PZBREwFAB0iaBfgJaZky/LcngS1tn9T2QEL3SZqflGNiV/qTICsk3yEFAo+0PZBREQFAB0j6JulEcpNuAs4lLbXfRTqFP/b1buAZpCQozxn3dWFSCtR1SCVLm/IQsIHtSxvsM/RItc//DtKtmee0PJyJepS0DH4TqULf2OcfpHLcTwCPj/v6+HT+2ezAsybweS6wHN3fWrycdCX42rYHMgoiAGiZpA8AX2ugq+uBs0iT/rm2/z5oQ5JmJ1U+ewXw8urr3CUGOQP/BNa2fWPN/YSeqdJiH0U3l/sfBS4hLXP/nf+e7O9scu9b0mykdMYrTPNZnuYqhk7E/cDOtn/c9kCGXQQALaoS/BxPfVXEHgd+Dhxs+5ya+kDSvMBbScuuK9fVD/BXYF3b99bYR+gRSdsD36Y7SbIeAC4gZcM7F7ikD0vakp5LyoD4amBDUmDQtm8BH4psgvWJAKAlktYhvZHXkdb3H8ChwGG2b6uh/aclaX1SILA1MKWGLs4FNrL9aA1th56QNA9pgnhby0O5k6cm+/OAPw5Dhbyq3PGreSogaOtK8qWkLYEbW+p/qEUA0AJJywIXUr7QyMOkantfbjtqlvR80g/oTWpo/kfADnF1aDRJWgM4Fli2pSHcTzq0ezRwzijUsZC0ArARKWVy07US/gW8zfYvGu536EUA0DBJzwYupvwPr18Bu3ct57akbYBvUv4N4vO29yncZuiw6qDfR4DP0vxhtseBU0mT/kl9WNavi6QXA+8CdqC5+glTSecCjmiov5EQAUDDJB1MWiIv5Tbg/V0+MFOdEfgM8D7KnXeYCqxu+/JC7YWOkrQUsBbwHtJydFMM/Bb4IXC87Xsa7LvzJM0FvBHYmWYOYE4F3mn7+w30NRIiAGiQpJVJ11xK3U++BNjc9u2F2quVpC2AYyh3hfA3tjco1FboAEnzkSb7tYCXVl8XbngYj5O+T78UmSgnptoi2B14N/WuzkwFdrL9gxr7GBkRADRI0hmUe4M5AdjR9sOF2muEpNWBk4BFCzW5bWQK7LfqTXIL0k2SjWgvgc9DwGHA12zf3NIYek3SMsDnSSsDdZlKyhB6ZI19jIQIABpSvf3+vFBzXwD26eshOElLAKdQpiLbjcAKo7wn21eSViKVut4amLfFodwNHAgcGMv8ZUh6KfBlYP2auphKKhh2VE3tj4QIABogaQrwJ8oc/Huv7YMKtNOq6lzAr0lZBXPtY/vzBdoJDZD0AuBTwJuoLwfGRNxPOlB4UFSlq0f14rM/KdlQaVNJtwOOrqHtkRABQAMkfYRU/jLX121/sEA7nSBpIdKNiKUzm3oQeEHTOQ/C5FQrP/uRrpK1mad/KnA4KXC8o8VxjIQqA+F7SYHAMwo3/ySwfZcPQXdZBAA1qya5v5GfqewU0oG/obpzXB2MvID8JeAf2H57/ohCHSRtSkrX++yWh3IuqeDMZS2PY+RU1wePp/wV6AeBNWxfXbjdodfm8tuo+Az5k/+VpCh3qCZ/ANtXkUog5/677VgdMAwdImlWSZ8DTqbdyf9W4E22XxGTfzuq/+4vISVxKmke4PiqpHqYhAgAalSdbn5LZjP3A6+3/UCBIXWS7VOAj2c2I9J95NARkhYGTgf2Jv35tOVYYGXbx7c4hgDYfsD2DqTrgiVvMK1KSjgWJiECgHq9jvw77/vmVO7rkS+TDkrm2EpS1IDvAEkvBy4DXtniMO4G3mh7hygg1S22DyPlefhrwWbfJWmHgu0NvQgA6rVt5vNXkvLpDz3bT5ASieRYiFSaOLSoKnF9FuVyPQziDNJbfxwO6yjbVwJrkw4Cl/Kd6pZJmIAIAGpSLf+/LrOZ3auJsVHVvm3jS7a2f0NKu5ojN+gKGSS9F/ga7Z7y/xKwcV8yZI4y2/eRkj9dVKjJsfMAdVRZHTpxC6AmkrYlnXgd1JG2s0udVldwlgKWGfdZlPQXZe7q67SfZ5DyoD9EOmE79nX85z7g78B1Yx/bdxYY7yLA1Qx+cPIOYLFhKMnaN5LeSNpvb+vF4iFShrh46+8ZSc8kFTQrkRcE4Du2dynU1tCKAKAmko5n8LdRA8vZvm4S/U0hnbBdB3ghT032S9Lc29gDwPU8FRRcAfzW9g2TaUTSl0hV3wa1oe2zMp4PkyRpQ+CXwJSWhnAxafL/S0v9h0xVcrBfAesWanKLKCE8YxEA1KBa/r+TwQ8AzrTIjaRnkf6ivAxYD1gT6Oqy162kqmpjn8tntLUhaXkg5wf5t22XrLgYZqBK8HMlMH8L3f8d+AZwwDBekx01VRBwKmWqC15NOgfS+DZqX0QAUIMCy/9vn7balaTZgVcDm5Pya69Iu1ercjwE/I50UOwn03trk3Qh6YDQIGIboCHVWZHTSN+bdbqFdEvk2urzF+D3tu+qud/QMEnzAOcDqxVobjfbhxRoZyhFAFADSceQktsM4gFgEdv/rg6ybARsA7yedt6wmvBnUnXDE6qTwUh6F3BoRpuvsH1uicGFpyfp/aQ38NJMyhB5MnDK2PdFGA2SlgN+T36G0H8Cy9p+MH9UwycCgBpIuhoY9CrKscBPSJP+62i3SlobriEFA6eRlgIHze71QdtfLzaq8D+qGvB/oOzWk4GfAp+OSX+0SdoeOKZAU/vZ3rdAO0MnAoDCqnSUDxJXLNt2hO2d2h7EMJN0NrBBoeZi4g//Q9KhwLsym3mItAoQ10KnEZNUeSsS/127YJW2BzDMqkx/GxRq7lHgzba3ick/TGMP0m2iHHMDny4wlqETE1V5K7c9gADAipLi+7s+nyrUzr3ARrZLF4gJQ8D2I8AbSauqOd5ZbVmFceIHZHmlS12GwcxFu6loh5ak9SmT4/8GYN04rBlmpCrzu0dmM7MC+xcYzlCJAKC8YT2p30fxZ1GPEgeqLgHWtl2yGEwYXt8n3QrIsbmklQqMZWhEAFDefG0PIPxH/FkUVl3P2jCzmX+RSlzfUWBIYQQ4nVbfq0BTcTB4nAgAyotJpzviz6K8EsWW9rH9zwLthBFi+0zS9eAcb6mSqgUiAKhDTDrdEX8W5eUGAJcA3y4xkDCS9iJdGR3UQsBmhcbSexEAFCJpFkn/R7lqVm16kry/ZF2xr6SXtD2IYVEt/78oo4mpwC6Rsz8Myvbl5CcHim2ASiQCKkDSc4EjKXcvurQngBtJWfbGPrfzVGnfB8b9+kHbj1Q53ucmZSIcXyp4XlKp3ucBy5EyHr4AeE5z/zqT8jjwSeBLMfHkkbQ38LmMJg60nXuaO4w4Sc8D/srglSefBJ5r+7Zyo+qnCAAyVekqD6Y7J87vBs4j5VH/K2myv97243V2Kml+ngoIVgFeDqwBdGW/7VxgR9t/b3sgfSXpD8CLB3z8MWBh2/8qOKQwoiQdBOyW0cTHbI/8tcAIAAYkaT7SxL9Dy0O5kzS5nQP8BrjKHflDlTQ3qWTxK6rPWrRXLx7gPmB32z9scQy9VJW4foDBtw1Pt71RwSGFESZpVeCPGU1cY/uFpcbTVxEADKBKg3oUsGRLQ7iCtA92ku0/tzSGSavqJLyMdJBsG+DZLQ3lR8Cu8TY6cZJeClyU0cQetg8sNZ4QJF0KrJ7RxPq2zy81nj6KQ4CTIGl2SV8Azqb5yf864LPASrZXs/3FPk3+ALYftn2G7fcAiwCbkybjfzc8lO2AKyRt0HC/fZZz+A/gpCKjCOEph2c+/7Yio+ixWAGYIElLACcCTZ4qvxs4GjjG9u8a7LdR1VbBFsBbgI0BNdT1VOBztj/ZUH+9JenbwHsGfPwq21GcKRRVnTu6jcHLUf/d9tLlRtQ/sQIwAVURiQtobvK/AXgfsKTtPYd58gew/ZDtY2xvCqwAHEaqEFe3WYBPSDpC0mwN9NdnOSsA8fYfiqu28H6W0cRSkpYqNZ4+igBgJiStTTpV/9wGursUeBOwnO1v2W56abx1tq+2/W5gKdKVs3sa6PbtwM+qMwphGlVVxZw3+AgAQl2OyHz+FUVG0VMRAMyApE2AM4EFau7qV8CrbK9p+3jbT9bcX+fZ/qftj5POWuwB1H19bzPgDEnPqrmfPlqKVF1xUFeWGkgI0zgTuCnj+ZeXGkgfRQDwNCS9FfgFeT/4ZuZPwGtsb2L77Br76a1qe+BAYHngE9R7YHBd4LzqvEd4Sk6Oi4dt59ZyD2G6quReP85oIlYAwn+T9CHgB0Bd+8L3kt5qX2T7jJr6GCq2H7H9WVIgcFyNXa0E/FbS8jX20Tc5NRXuLDaKEKbvnIxnl5W0WKmB9E0EAOMo+TLwFeo5if4kqRDKcrYPtP1EDX0MNds3296OFLnnJAKZkSWB86u77yECgNBt55Nu9AxqZLcBIgCoVKfAvw98uKYuLgFWt72r7btr6mNk2D6XdCtjd+ChGrpYADhL0sY1tN03z8x4NgKAUKvqNkDOy8DIbgNEAPCUg4Eda2h3KvAF4GW263pjHUm2p9o+mJSf/tIaupiLdDtg3Rra7pNYAQhd95uMZ2MFYJRJ2gt4Vw1N3wJsaHvvuovxjDLbfyMd4NufvKXA6ZkDOFHSsoXb7ZMIAELXnZPx7IqSulrNtFYjHwBIeiPpDb20E4BVbZ9TQ9thGrYft/0x4NWkwKukBYFfSqr7OmhXdXoLQNLykt4raT9Jh0jaRdIidfcbOuU8ICet7aqlBtInIx0AVEu7P6Dsgb+HgXfa3tb2vQXbDRNQXadcjbwMYdOzHPBzSc8o3G4f5Pz9KL0i8x+SlpJ0BHAVcCDpmuguwCHAPyT9StJCdfUfusP2PeTlm3heqbH0ycgGANWS7okMnkd6eu4AXmk7t0hFyFD9MNga+GLhptcDjpDUVK2CrsjJvVBLHo0qPfcVpCyOs07nt8wCvBb4XVU6Ngy/nMp+zy82ih4ZyQCgWsr9JWlpt5SrgXVsX1ywzTAgJx8lFbAped1ye1JVxlHycMazcxcbRaX6+3syE9uaWIp0pXPt0uMInXN1xrMRAIyCagn356Ql3VLOJU3+1xdsMxRg+1Dg9cADBZvdW9JOBdvrupwAoI4VgG8yuR/Y8wKnSsotaRy67bqMZyMAGHbV0u0RpKXcUo4hpfON/f6Osv0rYH3gHwWb/Y6kVxdsr8tytgCKrgBUAfwWAzw6P3BatXUQhlPOC1gEACPgQ6Ql3FK+CrzF9mMF2ww1qHIwrA1cU6jJ2YAfj0jdgC5tAbwGmGfAZ59DKvi0TMHxhO64gcFvAiwgKee2Sy+NTABQ5Xb/TMEmv2X7w7Zzrp6EBtm+BdgQuLFQk/MDhxVqq8u6dAgw97T2YsCZkpoo7x0aZPsR4NaMJkZuFWAkAoCqnvkRlDvxfzipmE/omSoIeBXltgM2lvSOQm11VZdWAO4o0MZSpJWAhQu0FbolzgFMwkgEAMAHScu/JRwLvCve/PvL9g2klYASkwnA1yUtXqitLurSCsA/C7XzAuBsSS8o1F7ohjgHMAlDHwBIeiHllv5/DuxY1aAOPWb7atJ+8j0FmpuP4d4K6NIKwIXATYXaWgH4vaQ3F2ovtC9nBWDkkgENdQBQeOn/DOBNUcJ3eNi+AtiYMtUENxnirYDOrADYfhT4dMEm5wGOlnSYpDkLthvacWPGsyOXNXKoAwDgA8A6Bdq5kTT5x2n/IWP7EsoVghrWrYAurQBASt/9h8Jt7gxcXB0WDv2Vk+9jSrFR9MTQBgDV3l6JjG2PAFtX6WXDELJ9LCmXfK75gEMLtNM1nckDAGD7SWBT8pZ7p2cV4FJJby3cbmhOTrA6cnU+hjIAKLz0v7vt0m8boXs+BFxQoJ1NJb29QDtd8mDGs3NKml6u/iy2/wlsBNxeuOm5gSMlHStpqcJth/pFADAJQxkAkPK/r1ugne9GYZ/RYPtxYFvKnDL/uqRnFWinE2w/yOBLqyLdvS+uSr39WuC+GprfDrha0lclPbuG9kM9IgCYhKELAKpUofsUaOr3wHsLtBN6wvatwJuAJzObmp909XSY5ORNWLLYKKZRHeR8PXk/+J/OM0h/jtdJ2ktSycqhoR453wdxBmAI7AzkHsR6CNi2OnEcRojt31DmlPkew7QKQEcDAADb55ECt7pu6MwP7A/8TdI7qi3G0E2xAjAJQ/WNXL39f7RAU5+oksWE0bQ/cFVmG88k3UIZFrdkPFv7Xrrtk0jBf50JupYgZQG9UtKukuarsa8wmJwDqxEA9Nw7SX9Jc1wCHFBgLKGnqvMA7wJyEz69f4hWATq7AjDG9g9Ie/d1bAeMtyJwMHCbpB9IWr/m/sLExQrAJAxNACBpCvCxzGaeIKX5zd0DDj1n+yLgoMxmngnsWWA4XdD5AADA9vHAK4DbGuhuTmBH4FxJf5X0EUkjl0ymY+IMwCRoWFLaS9qVFJXn2N92bhARhoSkeYE/ATmV4+4Dlrb9rzKjaoekzYETB3z8SturlhzPzFRlmk8CXtRkv8DjwKnAr4DTbV/bcP+dVF0FXQF4Cenv07NJ17TPB06zfXfBfgY9C3Kv7ZG68TEUAUD19n8teT+orwVWqUpKhgCApM1IE0mO/WzvW2I8bZG0OnDpgI/fZ3v+kuOZCElzA0cDb2i673H+DpxOSiV+pu27WhxLI6qfx6sALyZN+C8BViWtmEzPVODbwIdyf/5W5zIGDbb/bbuOzJWdNSwBwC7AIZnNbGr71BLjCcNF0onA5hlN9H4VQNIi5C2rz2+7jvv6MyRJwBeAvZruezoMXA6cVX29Evhrn28bSVqAVFnxJeM+KwGzD9DcFcBmtm/OGM8SwKDPxwpA31TR5t/I22e8wPbLCg0pDBlJqwGXkZLaDOrTtj9VZkTNq66+PcJgP9gBVrV9ZcEhTYqkHYBvAV07lPkE6efXleM+VwE3t117pAqeFiHd4lgKWHrcr8c+8xTu9nTbGw36cFXL4S8DPn6D7ZEqCTwMAcAOwA8zm3m17TNLjCcMJ0k/BrbJaOIeYJHqhkEvSfo7gwfam9k+peR4JqtaxfgWsHWb45ggA3eTVl1unebrbaRl7kdm8JmFlNZ4blJFxrkn8b8XJk3uS9LOyfi3Vzc6Jk3SGqSbXIO4zPZLBny2l2ZrewAFbJ/5/Lkx+YcJ+DSwFYPfnHk2KXd9q5NgppsYPABovda67duBbSRtTQoEFml5SDMiYMHqs0rLY2nafpKOHvA21rwZ/fZ2i25Qvb4GWOXofm1mM70+nBWaYfsq4MeZzeQGq20bdGkVYOVio8hk+yeku/wDvWWG2i0JbDbgszlbEhEA9MxWDL4nCXC27XMKjSUMv0+TlxxoC0lPdxK6D/6c8exqxUZRgO17bb8d2Jh0Uj90y+4DPhcrAJPQ9wAg940q3v7DhNn+C/CjjCbmYfA3my74U8azK1eHyjrF9q+BFwLvIy/ZUSjr1ZJeMMBzsQIwCb0NAKoDPRtkNHFVVUQkhMnIzQ64XZFRtCMnAJgH6OQJa9uP2v4WsAwRCHSFgF0HeC5WACahtwEAqXZ7zviPKDWQMDpsXwD8NaOJTSU9s9R4mlSVS875IdloNsDJikCgc94uaa5JPpPzdysCgB7JWf5/HDiq1EDCyDk849k5aDczXa6ccwCdDgDGTBMIvJe8f+cwuPmBN0/ymZzKkxEA9IGkpYC1M5o42fadBcczt6T3SjpA0o8l/UTSbpI6ueQZsh1JXu35Ud0G6EUAMKYKBA6yvRLp582hwP0tD2vUTPYwYM510wgAemI78rKyFVn+lzSbpN1IdQQOJC0bbkO6nXAQcJ2koyTNUaK/0A22/wmcnNHEa6oUqn009CsA02P7YtvvIeUOeCspnW+/s6j1w2qSJpOlNQKASehrAPDGjGdvJ1XrKuEQ0kQ/o4QibwHOk7R4oT5DN3wv49nZSEFiH+WsACxTFejpLdsP2z7a9oakLYJPABeRdz00zNiEVgEkzQ7k/JwttircF70LACTNQ16Jz2Nt5yzfjo1jF2DnCf72NUg1wxfL7Td0xqnk/cBYv9RAGnZVxrMiVYgbCrZvsP1Z2+sAC5HOJR0J/LPdkQ2drSUtPIHftxSDz2lTgRsGfLa3ehcAkKpN5Yw7++2/uoL4zUk+9nzgDEkL5vYf2lelKc1JIb1GqbE0yfZtwC0ZTfQ18Jkh23fb/pHttwGLkv58Pw6cTaoGOYoeJRXROpK8laMpwLsm8Ptylv9vHsVS8H2sBZDzg/MRoMTd/41J35STtQJwmqRXtlEaNRR3OoMf6HuhpHltP1ByQA25kHQNdxDrlRhAVQX0tdU45gEeIq3IHGo755pmNqcKa7+vPp+rEiAtB6xO+vm1BulFpnQlvbYYuJ7/rmh4JfC3sXz+krYFjs/o4z2SvjCT+gA5AcA1Gc/2Vh8DgDUznj2vUJS3ScazLwZ+KWkj2w8VGEtozxkZz85CmgR+U2gsTbqIwQOAdSXNYnvgPXNJbwS+zfRL++4p6efAR2134od6FRBcU32Ohf+UV34hqUbCMtXn+dXXJYBZWxns9D1GWvW5Cbh5Ol9vmMDPsp+RqhguOuAYlgC2AH46g9+TEwD8LePZ3upjAJCzAnBaoTHkHuhbF/i5pM1sP1piQKF5tm+SdA0wSMpSSN/LfQwALsx4dn5gJdIb4qRJeh/wDZ5+G1DAlsCaktaxnbNdUZsqAPoL0ymwVB1mW5oUECxMWimY7Gd8jZRHSCskDwH/HvfraT9j/9+/+O8J/p/OrBtv+wlJhwGfzGhmd+oLADoRLDatVwGApPlJEfKgTi80lNsKtPFq4HhJW5c4lBhaczp5AUAf/YH0VjjINhikcwCTDgAkfQz4/AR/+xLAqZLW69t2m+3HSW+kA7+VVlskU4B/56y2FHYosDeDzzuvkrRCVZNjenLyrozkCkDfDgGuzuD3//8JXFFoHLcWamdz4JS+poYNQN42QC8DgGrV6rKMJiZ9DqC6dTPRyX/MysB7JtvXMLD9mO0HOzT5Y/sfwImZzXxY0pqSXitpuyrh2j6Svko6YzWokVwBUObKTqMk7QXsP+Djx9kukoFN0prAxeQlIxrvT8Bmtm8s1F5oSLUqdW9GE8+y3bsEJJK+Abx/wMcfIuXPONT2dRPo603AMQz2wnKV7VUGeC7UQNKryLs9U4fHgblGcSW2bysAOQcAc+4v/xfbl1Ad5ilkJeBiSTnpjUMLqsk7p2hML1cBgBmdxp6ZuYH/A/4m6XRJ20qa7rKwpNeS6nYM+rNq5QHLyoYa2D6LvGJadbhhFCd/6F8AkPPD8un2jQb1MeCegu0tBJxdve2Efsn53upVACBpUUmnAB8s0RzVWRjgIkkrTtPXOqRDX7NP59nJeEbm86Gsg9sewDRGcv8fehQAVLnTcyo9FQ0AbN8EvI60nFnKHMCxkj5RsM1Qv5zvrdWLjaJmkrYnraRtWkPzqwO/l/QhSbNIWgU4BZhsOdjpieu23fIDuvVnMpL7/9CjAADISaP7BKlgT1G2LwK2Ju0hlSJgP0nH97hgzKjJWdLsfHpoSQtI+jFpH/7ZNXY1B/AV0tXIXzP9e/6T9RhwV4F2mU8hLQAAIABJREFUQiG27weObnsc48QKQA/k/OC53vZjxUYyju1fAztSvhjItsBVkjYv3G4oL2cFoM4JNZukOUmT8TYNdrsegyeMmdYPqgkndEuXtgFyDvH2Wp8CgJy3gdL7///F9o+APWpoehHgREk/qE6bh27K+f4q8ZZbiyqF7Q/o0TbFNJ4Evtj2IML/sn0F8Nu2x1H5mqQl2h5EG/oUAOS8KdV+6tT2QcCnamp+R9JqQE4K4lAT27czeMGXzgYAwL4MnvK3Cz4/kWuGoTWTLahWl0WBX/S9VPUg+hQA5PygbGQP0PangQNqan5xUg2BwyTNV1MfYXCDfo9N6eIPnirffk7a1rYdbbvP4x96tn9MXiKtkl4MHFWteo2MPgUAOSsAje0B2n4/6c2pLjsD10rao8oZHroh53usU+cAqut436dcoqumnQO8s+1BhAl5D6kGQRdsyeDVPXupTwFAzgpAo4eAbO9Hql+dkyxlRhYkLZ/9WdLWNfURJifne6xr2wD/B8zZ9iAG9Gdgy7oO/YaybF9PvS9Mk/XZUXqx6lMA0IsVgDG2v0uKKOuMbpcFTpB0gaR1a+wnzNxQrABIWoj+vgXdDmzax9TKI+7rdOda4PMZofoRfQoAerMCMMb2ScCGwN01d7UO8FtJJ0ybTS00ZlhWAHahn5nzHiLV0/h72wMJk2P7SdtvJa2aPtL2eIBPSCqRgKrz+hQA5LwlPVBsFJNUJQt6GXBjA91tTbotcIqkDRvoLzwl53usEysAVQnZXdsexwAeA7az/fu2BxIGV62avpS0jdOmhYCRuHE1aF3mNvRuBWCM7aurvObHAS+vuTuRUrVuKuly4GvAj6oa46E+w7AC8EZS7olc95KyBj5ctbcoqeBVibandQewle2u3CkPGar8ACtJejGpXPoWpBP6Yx4nBdv/IKXwvYZUnn0O0sS9HfDcAkPZAvhJgXY6rTflgCXdxOB/sEtVuftbJWlW0oGXfWh29eVW0vXEQ22PbNarOkn6HLD3gI/vY3uyte6Lk/RL8t989gW+bPvhadqeA9gT+AzlXjyuADaPZf/hJmlBwMADMzvcWf2M3Qb4LjBPRrf3AAvZrusgdyf0aQsg52BPJ7LoVXtdnwQ2Ih1YaspiwP7ArVWNgc1H6aRrQ3K+x7pyaG25zOf3sL3ftJM/gO1HbO8PbE+qzZHrROBlMfkPP9t32b57Ijc7qp+xxwGvIS/F77OB9TOe74UIAFpg+0zgRcDpDXc9Bymz24nAbZK+JWnthscwrHKSM7UeAFRvTktnNPET2wfO7DfZPoH0hvZoRl9fIF31ezCjjTDEqrNXe2Y2s2aJsXTZqAQAXdlj/Q/b/wReS9oOaGOZaQFgd+BCSX+TtK+kNauJIExe31cAlmLwpfmpTCJroO0Tgdcz+SuyjwJvsb23+7J3Gdp0NHBlxvOdr9SZa1QCgE6tAIxx8nngFdRcsGgmliXVMfgdcLekn0t6n6SVWhxT3/Q9AFgm49nf2Z7UyW3bp5Our540wUfOANay/cPJDi6MJttTgaMymli81Fi6qk8BQM5+TudWAMarTjCvBnyM9tNizkc6AXsA6UrhbZJ+KGknSUu3OrJu6/UWAHkBwEDBq+0rbG9OqjZ4FKlo19hq2FTgelLZ2Ffafk11QjyEyci5Ujj0KwB9ugY4VFsA06qu6e0v6RhSmt83tDykMYsAO1QfJF0PnFl9zrZ9R4tj65K+rwA8L+PZa3I6tv0HUsXLsVwEs9juQkKY0H8535t1XFvtlFEJADq5BTA91XXFLSW9DjiQvB/MdXh+9XkXYElXAeeSIu2/An+1fWuL42tL31cAcrL/FZusI4d/KCwn/0mf5seB9OlfcKhXAKZl+xRJZ5Huln+EbqZnFbBK9XnqH0r3A1eTAoK/VF//Clw7jAmJqoOT8w74+GO22972CSGMoFEJAHLvN7eiuk/9CUmHkc4H7ARMaXdUE/JM0hWaaa/RPFFtIYwFBDcAd1Wfu8d+3cMgIef7675iowghhEnoUwCQU1BnVUmzVKdCe6faFthV0udJgcA76UcgMK3ZgBdUn82f7jdVKwh38b/BwX2kJDJPjvs67a+fBGYH5iKVtB3/mUpKT3sf8HvgItslJuAXZTxbd6GoEEKYrj4FADmnOecCXki7V+2y2b4Z2G2aQKCLWwO5nll9nl9zP5Z0Lqkc6UkZAeKLZ/5bnlbbhU9CCCOqN9cAbd9FKgAxqJy3tE6xfYvt3Un39w8iL6vaKBMpB8PPgT9JWm/AdnICgMszni3poYxnO1HNMITpWDDj2aHPNNmbAKByWcazOT+kp0vSIlXCnOMkHS7pG5K2byqbXhUIvBdYEvgocF0T/Q6p5YHfSPp6dRVtMnKCy64EAHdlPPuCYqMIoazlM54d+ivOfQsAcn5YFlsBkDSXpONIKxIHkMqovgN4P6kM6tWS3lmqv5mxfYftL5IOo21EKmNZouDKqJmFlD/8LEkLTeQBSYsDz8nocxgCgFWLjSKEsnJe/CIA6JicH5ZFVgAkLUBKgvNGnv6/3zLAdyUNWh52IFVq4dNtb0MqnbwPcGOTYxgSLwMukbTaBH5vzvfVPdW5ji64M+PZFaq8FSF0hqT5SeekBvXPUmPpqlEKABas3tYGVtWlPheYaAW9z0naMafPQdm+vaozsAywKXAscH8bY+mpJYHfStpyJr9vGPb/AXLT7H5GUp8OFYfh92HyEnT9sdRAukp9KqolSaR8AM8csIkjSDnHfzvZjGOS5gXOAtaYZJ//AhbuQoazam/71cBWpGt4OUvXo8LAJ2x/Dv6T9GdZYEVgJeCtDL4H/jXbHyoyygIk/YW8PdMTgO1tx/ZTaJWknYDvkg76Dmpp238vNKRO6lUAAFBd21o/s5mHgHOAXwOn2b56Jn3OAfwSeOWA/b2hKoHaGdVEth4pGNiStGUQnt5FwNyk66SlcjDsaDunWllRkg4Cdsts5lfAPlV+/xAaJWlhYA/SNemcyf962zkFsnqhjwHAAcD7Cjf7O+Ddtv9nyada1jyBVCFvUEfZbmUrYKIkrUmq0b4BsBbDmV+ga1a1nVOvvChJW5CuRJZwESkd9L9I11QfA26p/vlVtp+cwbMhPC1JS5G2YVcg/ZyaQloVXhR4DWUC9G/b3rVAO53WxwBgZ+CwGpp+gpQQ5lNjudmrLYfvU1Uqy/Az21tlttGYasVjLdId+ZeT6rbP3eqghs9jwNxdWi6vgt0bgCVq7upe4EvAN6t01yHMVHUe57Ok7be6rT4Kq1i9OgQo6YWk4jh1mI1UdOcqSRtX/+zr5E/+kJdkpXG2H7F9ru3P2H4NqZjSOsBepK2QSF+bbwrpkGjOMmVRVTDyrQa6ehbwBeBaSe+Ow4NhRiRtIOki4Kc0M/mfPwqTP/RoBUDSusAvgAUa6vJSJn/g7+l83fYHC7XVCdU9+RXHfVaovg59De3CjgXe3oVDogCSngXcTLMrPteQzkNc3GCfoeOq78UfAps03PUbbf+44T5b0YsAQNJWpG+EOdoeywCmAivO7KDhsKj+0k4bFKxIHDKckXOALW3nVLwsRtKngU823O09wHq2e12vI5RRbUOeQcrJ0aTfAy8dlTMqnQ8AJG1Hmvx7tV0xzgm2t217EG2rrlEuTyrws9A0n+eM+3XOvd0+uwpYx3br+cer66J/IF1zbNLNwLq2b2m439AhkmYhZTN9Q8NdP07a++/Mwdy6dToAkPRc4Er6OyncC6xt+5q2B9IX1eQzPiB4DmnbZ0r1mX2az7T/DOARUtnfh6f59QKkcwxjv69rvmd757YHASDppcAFNB94/wlY3/a9DfcbOkLSIcAuLXS9r+39Wui3NZ0NAKrDUacDG7Y9lgE9Cmxk+9y2BxKeImkD0rXOps6STNYWtn/R9iAAqlTWn2uh61/b3njmvy0MG0m7AIe00PWZwCa2H2+h79Z0OQDYA/hm2+MYkEkZ0Y5reyDhf0l6PulAadNL3BNxB7Cy7Zzc/MVI+hrwgRa6Xt/2+S30G1oiaU7gepo/SPw7YMMubL81rZP76pKWA/ZvexwZ9orJv7tsX0+61nhy22OZjoWAQ9sexDgfIqXQbto+LfQZ2vUump/8/0R68x+5yR86GgCQSrLO2fYgBnSQ7S+3PYgwY7YfIGV3/GLbY5mON0jqxOqE0xLhzsC+pBstTXmNpGc32F9o3/YN93cKaaXpnob77YzOBQDV9Y8d2h7HgE4k5aEOPWB7qu2Pkgr6PNL2eKaxU9sDGFP9d9oP2Ji8ssGTMSvw2ob6Ci2rKq2u1VB3T5JWmF4/6odNOxcAkK5+zN/2IAZwPrCD7SbfkkIBto8m1UC4reWhjPcWSZ26rWD7dOBFpFTcTaQwjgBgdLyaZuajc0j5Jj7vrh6Aa1DnDgFKOo1U0CHHk6SUtSeSikSMXSl7HbBwZtvTczSws+1Ha2g7NETS4sDxwLoT+O23kcpD/550xfCx6rMkaS9z6QJD2sr2zwq0U5ykZUjbAtuT0mjX4Vrby9XUdugQSQcC762xiwuAT9o+s8Y+eqdTAUB17/9G8iLBq4FNq4Ne07Y/LykH+e4Z7Y83Fdjbdhf3kcMAquunOwIfB5ad5v++jlRj/Be2/zyDNmYBdgUOIO97+STbm2c8XztJ85NStb6++lp69W5h23cUbjN0jKQ/AC8u2OQTwHmk2z6/mN58ELoXAGxFygA1qL8Ar7T9z5n0UyLV6QPAm22flNlO6ChJiwKrkc4H3ANcOZllQ0nbk1aHBg0C7rL9nAGfbVwVPD2LlLxp7LMYcCCD12bf0napEsWhgyTNQyobPeuATXwb+A3pCu2d1eeuLlXa7KquBQB7kirwDepVts+eYF8fJa0GDOIGYHPbVw34fBgRko4kHTIc1Dy2e1VNclqSLiOdHRjEV2x/pOR4QrdI2pCU939Qi9q+vdR4RknXDgEumfHsWROd/AFs70+6bjhZ5wJrxeQfJmhfUo7xQS1daBxtytl3bboYTGhezp/xn2LyH9wwBQAnTPYB298EXk5KOTwzd5AOqWxo+67J9hVGk+0bSIV1BrV0oaG0Keftbi1JvdkGCQN5XcazOd9bI6+u07uDygkABiojavs8YCNJa5GWal8EvIC073s/cClwGnBylTwmhMn6M/DSAZ9duuA42nIu6YbElAGenZV0NfiwoiMKnSBpSfLu/0cAkKFrAcBiGc9em9Ox7d+RckKHUNp1Gc/m/J3oBNv/lnQh8IoBm9iGCACG1dYZzz5BOvwXBtS1LYCcgCROfIauejLj2UFPRndNzpvaqyIt8NDaJuPZi2NVNk/XAoAQwnDKCQBmAzqdDyFMnqTFSEW5BhXL/5kiAAghNOES4L6M599VaiChM97J4PkhIAKAbBEAhBBqZ/tJUh72Qa0radAzBKFjJM0NvD+jiQeBiwsNZ2R1LQDoTlaiELphmP5O5OZh36fIKEIXvAdYIOP5c23n5NcIdC8AyDnQsUixUYRQVs5J/pxl8645iVQ/Y1CvkbRGqcGEdkh6BvChzGZOLDGWUde1ACCn1vgLio0ihLJWzHh2aArh2L6RVKUzx94FhhLa9Tbyg+IfFhrLSBumAGDQRCsh1EbSHAyeBx9ghoWteujAzOffICknoAotkjQrsFdmM4f3vT5GV3QtAMj5YffuuCscOugd5O113lZqIB1xOqlk96AEfKzQWELztgOen/G8gYMKjWXkdS0AuCTj2XlIhVdC6ARJ85P3tvMwMFRFp6pyyrk/wLeT9LwS4wnNqcpF5wZvp9rOyawZxulaAHBO5vN7SPq/EgMJIYekeYFfA0tlNHOB7ccKDalLvk/egd/ZgPh73j+bAytltpG7hRTG6VQAYPta4NbMZr4o6ajYJwxtkDSrpO2AC8krcgJDmue8St96ZGYz76gyyYX+yL3G+TdSUB0KUVqR6w5JhwE7F2jKwF9Je6j/IlUje4RUNfASUh7pfxfoJ4wYSYuSUpiuDSwOzAnMRdrrXxJYqFBXa9j+faG2OkXS8qQqiTmZ4H5he4tCQwo1krQb+Vs/e1Yl3EMhXQwAXgRc1kBXdwGfBw62/WgD/YWeq/adPw28mfpXzy62vXbNfbRK0mnAazKb2c32ISXGE+pRrcZeSgqUB/UgsLjt+8uMKkDHtgAAbF9Oqh9etwWBrwHXSHqbpM79twjdIGkRSd8inV5/K838vRmFN50S+7lflbRCgXZCDaqkP8eQN/kDHBmTf3mdWwEAkLQl8NOGu70S2Nh27hmEMEQkvQ04mLTE35R/AM8b9lSnVdD9J2D5zKYuB146pAcme03S14APZDbzBLCS7WsKDCmM08m3Xts/A85quNtVgFMlzddwv6GjJG0GfI9mJ3+ADwz75A9geyrw3gJNvQj4QoF2QkGSXgvsWaCpb8TkX49OrgAASFoWuIL8paPJOoe0EhDnAkaYpLVJxWuanvxPsr15w322StKPgDdlNmPgtbZPLzCkkEnSc0g/v3NrtNwCrGD7wfxRhWl1cgUA/nMl8NMtdL0BcGSVtCKMIEkvBE6m+cn/AWD3hvvsgg+SlxcA0m2CH0hasMB4Qr7vUaZA2wdi8q9PZwOAypeAH7XQ7xsps3QVeqbKVf4z8tL3DuJxYBvbNzfcb+uqczclsnguSpp4QouqK3+vL9DUabZPKNBOeBqd3QIYI2kKcCrwqoa7voN0ECtyBYwQSW8Bjmq4WwNvs910v50haTbgD6SzOLneb/uAAu2ESZK0GikJVu7W7aPAKrb/lj+q8HS6vgJAdbJ3S+CihrteCHhXw32G9uVmK5usqaRlzpGd/AFsPwHsRgqGcn1DUolkYmESJK0KnEGZc1tfjsm/fp0PAACq+58b0Pzy3jYN9xdaJGkl8q+kTcZ9wOaR3SyxfT75KYIhnQc4VNJ7CrQVJqB68z+LlF8l1w2kJG2hZr0IAABsP2p7Z9JbwiMNdbtOVdEtjIZNG+zrKmAt26c02Gcf/B8pdXcuAYdU+9GhRpJeTJr8S52beb/thwu1FWagNwHAmCrt5wtJ+7R1H2CYlebPHoT25KalnYg7SXffXxx3m/+X7TuAjxZqTsBBkt5XqL0wDUkvIS37P7tQkz+3fVKhtsJM9C4AALB9k+0dgdWB44E6D+qtW2PboSOqrHR15t6/EdgPWNb2QdWed5gO298BfliwyQMkxa2ewiStTtnJ/1pgp0JthQno/C2AiZA0F/A6YCtgOdL904VJdcNzXWR7nQLthA6r9jAvL9Tcg8Dt1edC4Me2LynU9kiQNAdwHrBGwWY/bPurBdsbWZLWBE4DSm2R3g+sbfsvhdoLEzAUAcD0VIl8FiTdDX4jg5/ufgyYz3ZT5w5CCyTtSsr5P4h/AxuTSk/fHolLypC0OKmKXImEMmP2sv2lgu2NHElrkSb/UmnTpwJb2D65UHthgnq5BTARTu60fQXw/YymplD2LSR008synr3Q9nm2r43Jvxzb/yBdAS6ZlvuLkg6pVg3DJFXFsc6g3OQP8PGY/NsxtAHAeFVa4Zwqf+uVGkvorJw/498UG0X4L7YvAnYp3OwuwOWSXlq43aElaQFJPyG9TM1bsOkf2Y5CTi0ZiQCgcm7GsyNVnGXUVAlMlspoIud7K8yE7e8D3yjc7HLA+ZI+VWUhDE9D0iaka6tbFW76D8Shv1ZFADAxa1f7kWE4bZ3x7KPAxaUGEp7Wh4HSlf5mI9UguEDSCwq33XuS5pJ0MPBLyp7DgJRq/Q1x379dEQBMjEh7kWE45QQAl8QB0frZfpJUMvjaGppfE7isOgga+M9Bv8uAOv6bPAZsNYqFr7pmlAKAPwN3ZTwfaYGHkKTlgZUymojl/4bYvpf60oHPBRws6ZeSFq2pj86TNJukfYHfAnWtilxo+7c1tR0mYWQCAKf7judlNLG+pIVKjSd0Rs7bP8QBwGGzCXClpI9JKnnSvdMkzSJpa+AS4FOUyaESOm5kAoDKqRnPzgK8u9RAQvuqw185FR8fBM4vNJzQHQuQitHcJGl/SaX3vztD0hRJ7wT+ApwAvKjlIYUGjVoAcAJp/2lQ75c0d6nBhNa9mbzT/yfarjMNdWjXM4G9gBslfVvSMm0PqBRJ80j6IHA98F3qW+4PHTZSAUC1h/jLjCYWJFYBhkKV+z+36MwxJcYSOu8ZwHuAqyX9SFJv35IlLShpP+Am4KtA3G4aYSMVAFRyi4x8SNKUIiMJbdoSWD7j+btI6VDD6JiVdBPhMkmnSnp1X3IISFpe0gHA34FPAM9qeUihA3rxzVvYyaTCE88c8PnFgbcBhxUbUWjD3pnP/zgq+o20javPA5LOJuUoOK0rJZ4lLQBsCGxEKnO9ZLsjCl00cgGA7UeqlJbvyGhmL0mHV3eTQ89I2hh4SWYzsfwfIKXF3bz6IOkmUjBwOnCG7bubGES1Kvky0mS/EfBiRnOFN0zCyAUAlR+SFwAsQ1oKjEmgn3Lf/m8i3ZMOYVpLAu+sPlMlXUYKBn5HOnB3g+37czqoJvulgOcBKwOvBl5BymUQwoSNagBwNnALsERGGx+TdKyHtZ7ykJK0HrB+ZjNHx597mIBZgNWrz39IupsUDPwduA94qPo8WH19Epi7+swz7usSpEl/ceLtPhQwkgGA7amSvk46BTuolUnLfieWGVVoyD6Zzz8KfKvEQMLIWqD6rNn2QMJoG+Uo8jvAPZlt7CNJJQYT6idpddLBrRyH276txHhCCKFNIxsA2H4IOCCzmTWBPQsMJ9RM0jOAwzObeQL4UoHhhHZcRboBFPJMBS5sexAh38gGAJUDSftuOfbvc2KQEfIlYNXMNo61fWOBsYR2nEI6wPtN8jKCjrJfkW7Q5B6kDR0w0gGA7XuAQzObmQIcI2nOAkMKNZC0CbBHZjMGvlBgOKFFtu+yvScpCdQxpD/XMHOXAhva3sT2H9seTChjpAOAylfJfxtYAfh6gbGEwiQtDHy/QFM/s/2XAu2EDrB9g+03A2sAZ7Q9ng67DtgOWMv2WW0PJpQ18gGA7VuBIwo09R5JbyjQTiikOqB5BJBbxtnA5/JHFHJUVfmWK9mm7T/YHkuec1nJtnvuDuB9wAq2jyt87XVBSSsUbC8MaOQDgMongX8VaOe7khYr0E4oYw9SffdcR9j+Q4F2wgAkvVvS1cBtwE519GH7dNJ9/TcDl9fRR0/cDnwaWNb2t2w/XkMfKwF/lnSnpIMlzVtDH2ECIgAAbN8BfLxAUwsAR8bVwPZJWhX4YoGm7iWVhA0Nk7SIpFNJV3ZrL1fr5BjbLwZeBHwDuLPufjvgMVKp9M2AJWx/yvYDDfS7ILArcKWkVzTQX5hGBABPOQQo8Za3IfCRAu2EAVUHMo8llXHNtbftuwq0EyZB0hLAeeTnbRiI7T/a/gAp694bgJ8BdbwNt+lS4L3Aora3tX1KS/VNlgJOk/T6FvoeaREAVGxPBXajzKngz0p6eYF2wiRVqy8HAysWaO5S8m+JhEmqJv9zgGVbHgq2H7d9ou2tgMWA99PvswK3A18BVra9pu2DqttQbZsCnBBBQLMiABjH9sXA9wo0NTvwy1jWalY1+R8CvL1Ac1OB3arAMDRk3OS/TMtD+R/VFcIDbL8EWI20V34aZc4P1eVx4BJSzpPNgOfa/ojtP7U7rOmKIKBhI1kLYCY+CmwFPDuznblJQcBmts/OH1aYkWry/w7wrkJNHmb7kkJthQno8uQ/LdtXAFfAf773XgisPe6zMjBrC0O7CbgIuLj6+gfbj7QwjkGNBQFb2z657cEMO0VRs/8l6S3AUYWaexh4ve0zC7UXplH9AD6MVIK1hJuB1WzfW6i9MBOSnkuq0lnn5P9F2x+tsf3/kDQ3KcfAWECwDOmlYgFgjszmnyTVMbkHuJX0hn8RcFFTdSokbUD686rLY0AEATWLFYDpsH109Q1eYkKZEzhJ0htsn1agvTCOpFmA7wLvKNTkE8B2Mfk3p6HJv1FVrZHfVJ//ImkungoGpvd1Cmlyv3vc1/G/vn8EylFPAX4SKwH1igDg6b2PVOwnN388pCDgRElb2v5VgfYC/5n8DwfeVrDZvW1fULC9MAPV5H8O8PyWh9IY2/8G/g3c0vZYOi6CgJrFIcCnYfthYFug1H3YOYCfS9q0UHsjrZr8v0/Zyf9k0gnp0IAWJv829uSHVVP/LceCgNc11N9IiQBgBmxfQ7lDZZDupf8sTrnmkTQr8APgrQWbvQl42wgsrXZCS2/+u0vassH+hpKkZYFvN9jlFOCnEQSUFwHATNg+jnSvvJQppCBgP0mxBTNJkpYm7Re/pWCzj5P2/btwH3rotbjsPyfphHluZciRJWlt4EKaz9EQQUAN4hbABEh6BmnSWadw05cCb7F9deF2h5KktwMHAKVzh+9h+8DCbYbpkLQk6e9S23v+Xwc+HHkeJq5aPfkhKZBqy6PAVrZ/2eIYhkasAEyA7UeB1wGlk2esAVwmaffC7Q4VSQtK+impsl/pyf/zMfk3o5r8z6H9yR/gA8DxknKv5I2EatXkBNqd/CFto/40zlKVESsAkyBpceC3pNzVpf0aeEdT93j7ovqL/j1gkRqa/47tXWpoN0xj3OT/vJaHMq0LgM1t3932QLqoOmz7FVLA1CWxElBABACTJOkFwPnAc2po/h7gPbZPqKHtXqnuSn8VqGuC/jFp3z+WgGvW4cl/zN+ATWxf1/ZAuqRaHTka2LrtsTyNCAIyRQAwAEmrk/Yx66pjfRTwPtv31dR+p0lai/SDZ7maujgd2Mz2YzW1Hyo9mPzH3EnK2Hlx2wPpAkkLAL8A1m17LDPxKLCl7VPbHkgfxRmAAdj+PalE6KM1dfFW4GpJe0l6Zk19dI6kVSQdTVqWrWvyv5j0AyMm/5pJWoryk/+/SfkfSnsOcLakN9TQdq9IWoZ00r+Oyf8s4K8F2xu7Wr1JwTZHRgRWMx9KAAAgAElEQVQAA7J9FrAF8GBNXSwM7A/cJOkLkhauqZ/WSVpP0smk4ipvpr4kI+cBG1dpWkONapr8x+pqvAPYmZS2uaQ5SUlnRvaaoKSXkib/OgLwI4GNgVcSQUAnxBZApmo74BTShF2nR0hvPl+2fX3NfdWuKuCzKfAx4GUNdHkC6cplXas2oTJu8l+6YLP/U1RL0mtJZznq2Ir7Guma4Mj8gJS0BXAs9Zz0/4ztT47raxHSNuryBft4FHhDpFufuAgACpD0fOBX1LdsPd6TwPGkymZ/bKC/oqrkR28C9gJWaajbA4E948Bf/Zqa/Mf1txrwS2Cxgv2NOQF4a8/K6Q5E0nuBb1J+VfgJ0sHmw6fTZwQBLYsAoBBJC5Jyyb+0wW5PBQ4BzrZd11ZEEZKeB2wO7EnZyWFGDHzU9pca6m+k1Tj5b277jBn0+1xSELBywX7HDPU1wWol7svAh2po/gFgmxlVQY0goF0RABRUXV07Dtis4a4fJ+3bnV59LrX9ZMNj+C+S5gNeBbym+jSdOvRxUl6FHzbc70iStB7p9srSBZud6eQ/rv/5gJ8AGxbsf8xQXhOsrvkdSSp6VtqtwKYTWaWsMQh4J3Cc7dJnRYZGBACFVYVqPkta4lZLw7iXdNr2dOA02zfU3WG1tP9SYCPShL8W7VVfuwXYwfZ5LfU/EqqDqTsCO1H2hzekMy+b2z59EuOZHfhuNabShuqaoKRnAycC69XQ/FWkyf/mSYynjiAA4HZSkHN4pFz/XxEA1ETSa0jfeHVksJus64AzSH8xr6s+Nw56FU7Ss0jpXJepPmsDGwBduLL4C2CnYV2ybVsV4G5CervaDKijoNWkJ//xJO0HfKLskIC0IrGD7Z/X0HZjqjNLvwReWEPzZwJbD5LDpMYgYMz5wOHA8XETKIkAoEaSFiIFAa9teyzTMRW4mfS2/BDpOuP4r7MB8wBzj/s6P+la17NaGO/MPAr8n+0D2h7IMKpKwO4EvI16DtyNeQTYYkb7xhMhaSfgO5QPUKaSDpT2sn6EpDVJZ5UWqqH5I4GdbT8+aAMNBAGQziYcR1oVuLDGfjovAoCaVYdsPgx8Dpi95eEMq2uAN9m+vO2BDBNJcwLbkN72X9FAl0Um/zGSNiKd5I9rgoCk1wM/Auaqofn/uuaXo6EgYMyfSasCR9m+o4H+OiUCgIZU6W1PARZseyxD5mekq1qxpFdI9Za4E7A9MF9D3T5COrn965KNVtcETwEWL9lupTfXBCXtRiqlXfpcztNe88vRcBAA6dDwyaTCY79q+xB1UyIAaJCki2j2muAoeIft77c9iL6rcr+/hfS231R+hjG1TP5jJC1B2vOu49/rt6RVi06eOalWIL8IfKSG5h8Atq3xz63pIGDMraSka0fYvrbhvhsVqYBDGFGSZpG0kaTjSD/0vkHzkz+ksyi/qatx27eQTrvP9DrhAF4GXFAdrOsUSc8gZfarY/K/FVi/rskfwPbt1PNnNjOLAXsD10g6R9JbqyveQycCgBBGjKSlJH0KuAH4NfBGYEqLQ1oO2K/ODmzfT0o9/YMamn8BcFG1zdcJ1U2d00lZN0u7Cli77kykVW6J3ersY2ZDIJ19ORK4TdK3q+2xoREBQAgjQNIzJL1J0mmkiX9fYMmWhzXehyStXWcHth+3/XbqCTbGqgluUUPbkyJpaVIGw/VraP5MYL3J3PEfRPXGfQTdmaOeCbwH+J2kKyTtWWV/7bWu/McNIdRA0mqSDiAt2f6IlKSprQRVMzILcESVna5WtvclHXIsnSFuLuCnVV79VkhaA7iIevbNjyRlRJz0Hf8BfJ7ms4dO1CrA14F/SDpe0saSejmX9nLQIYSnJ2k+SbtKuhS4HHgf8OyWhzURy1PzVsAY20eQtgQeKNz0LMCBkr5SHcBrjKTNSLUY6qhM+hnbb8u54z9R1dL/++rup4AppDTKpwI3StqvqnnSGxEAhDAElGwg6SjgNuBgYPWWhzWI2rcCxlSZBtcD/lFD8x8CjmtiRQNA0i7Az0kJu0p6gpTcp8gd/5np4NL/RD2XlH3yOklnStqhqT/7HH37jzzKjiIdvhkmj5JS9/6+7YH0laTFJe1NKlhzNukqXx313JvS2FYAgO0rSKmsr6yh+W2BM6q8+7WoAr/9SVVBS9/xfwDYzPb3Crc7I11e+p8IkYqg/ZB0cPAgSS9peUxPKwKA/jjY9iqkZdJ9gMtaHs+gHgZ+CuwAPMf2FgxfYFMrSbNL2krSycD/t3fmYX8UReL/VBLCjRyigHLJroAiCOIJKCjoIgj+1gOPBTnWA5CVZTlkXQUVFBVWXFERUaO4uIIXoKKoIHIrNyKIIOE+AwiEJEBSvz963vDy8h7fma6e7vlOfZ6nnzxJvtNd09PTXVNdXXULIcrkepnFsqS1rQBo5ZjgRSmOCYrITMJCc4h13QSfkdemPOY3lg6Z/gdlRcIphstE5AoR+XB1OqMYXAHoGKr6F1X9jKpuRpj0DwbOwn4v05KbCRaMXQiL/ttU9fuqWrLMxSEiG4rI0YT8DT8CdiBfxsWJWETIRhnLAW1tBcDTjgnOSlD9CwlKgNkxwWohOYsQrdGakWN+rYXWNjT9LyDkMymNlwJfJlgFvi8i27btIzIuquqlpULwztWG5VVT1D2dMMg+TPD2vj2irZjyJHA5IezoO4E1BuiXWRHt7Z77uSYeMzOA9xKOdeV4noOWvxH2QNcENiOEVo2t8zpgqQx9fniiPppLyHIYK9/ahBj2KWT8LfCsDH1+rJH8BxGSl+1ByP6X+72YrMwGPpqjvxf3e66G+1QI8dR3qB5408EyqQIwQbtrETIR7gMcQ8j//SfgMYPBew9hUTqJMGH+C/BqYPkGcs6KkONbwKbAtNzPOcGYOYgQJS/3RDVRmUcwQb+eKqz4KPk/ZdTG5zP1/+7A4wn6bCGwb4RcmxGcPFM8z+8CS2To6y2rfomV/yJg+pi61yeEQk7VZxblIcI23qpt973nAkiIiKxJSEn6JuJNW69W1YvjpVocH3w1Qlrf5QjZ0pYbU54kmNIeqf58dNTf71ZD872IzCKkmY3h78BngaO1w4k8RGQNwsK/F2my2FlwOSFpysmq+tB4P6j2py8lPrTwImALq7FfBxHZjpDwZ4UE1R9NSF898AQsIm8GTsHe0x/gCFX9eIJ6J6Uy/V9FvOPffGBTVb1+gnZmELZ49qr+tE4TbcE84ETgC5o40NJicmjXfSgEJ7eHsNMSa1sAulKIswCMLRcDL8h9Tw36YAbh6Ngjhn1hWeYQtnU2qXFPnd4KqO5hY9JZYX4ALDmgHB8gKOXWMjwB7JVx3JuZ/mu0uRrBd+r6TO/SVOVxgmVzveT9n+vBD3MB9iZ8uVgOClcABi+3tfHyGN7/6whbM7knnrFlISFXwC4MuFCNc2+d3gqo7uF5hK/UFH18HrDyJG0L4WhcirYfBt6UsV+Tmf5ryLAFYbF9tOV3a5AyF9gn6TPI9fCHtZBm8VdcAahbilcCCKbl/y1gohlbbgY+AaxlcI8zgasNZFqY8x2ontVZifr7emDdCfrue4navAN4acb+XIYQuyL2PuYBGxjIsxxhe+CClt+1QcqZwOpJnkOuATCMhXSLv+IKQJNSrBJQTTglTTbzgJOBbRnj0Gdwr53fCqjuYwnC12KK/r8HePmotlYkBHZK0dY1wJqZx3/rpv8asm0AfB64u+V3cLIyB3iH+b3mHATDVEi7+CuuADQtxSkBhC+73xUwqSjBoW9fYKXE9/xpI3mzbQWMupfDEj2LucBOhNM71yZqI8sxvzH9Z2X6v5iGpv8B5ZwBvJUQrdRCgbUoJ1k+v6wv0rAU0i/+iisAMaUoJYAQvCXnJPIAIShJayZghmQrYNT9vI80xwSfBO5L9NyzHPMb029Fmf5ryL06IeLiXzK/u0qIuWEyn3kkwEhEZG/gK5SZYtUJPJ+Qq908HGtDPpChTSWEun03YT9xP20x0puqPk44Wx+bgrfVXAEToarfIRwne9i46ulAijzzR6jqbtpCNr8psIr1/wmd4MhfClT1LlX9nKquD2xF+GiZ21b7Y1gXOE9EXhxbkSsAEfji3ynWBH6XWwkQkecCW7fY5C3AJwlOZtup6v+p6oIW21+Mql4OHGVQVau5AiZCVX9DMGffnluWSRjJ5tf6Gf+xGMb6vwT4b4N6GqGq56vqHgSrwPsJWxFtszpwrohEZfx0BaAhvvh3khKUgDYy9S0ghIN+IyEmwuGqeksL7Q7Cp7HJvNda2uDJUNVrCNkEr8otyzg8ArxF283mNy6Gsf7nE8J/Zw/2paqPqOqJqvpq4EWEaKv3tijCKsDZlWLVCFcAGpBp8R9mRaPNeytBCUjFlcC/EfIvvFtVf62qi3ILNZph2woAUNU7CGbhs3LLMoqRbH6/zC1IhZXp/7A2Tf+DoqrXqeqBhO3GfwZ+RvBXSc0KwK+qqJX1yekQ0sVCOw5/45XzgOVy33+C/tyGsJfWdn/eSoaIgdULO8/wPh4AjgM2y/0sa/bD0JwKGHVPM0h3TLBO+ROZj/mN6ZdOeP0nuO81gEOBG1p45vOBbWvLmLuTulTIt/iPlKFSAsi3+I+UWxgnAEsL9z3LQPYbgF3JeC4+sg+G6lTAmHv7RMYxnf2Y35i+6KTXf4J+eC0hhbeFIjRRuY+ail/2julKIf/iP1KGQgkg/+I/UlpXAoDNI+S9jeB4NCP3MzToh6EIEDTBvb2PNMcEJyvZj/mN0w9WAX8Ozn0vRv3xQuAbhC/2FGPgYmDmwPLk7pAuFMpZ/EdKp5UAyln8R0oOJeA/a8p4HyFZUFELnUE/DN1WwKh7ewMhS2UbY/jTue93nPvvpel/wL5Zg3RhwI8bVA5PBzwFBXv7nw9sr6qP5hakDiKyDcFBZpncsozhVmBrVb25rQZFZDdC+s8lJvnZI4QjT8eoYQrmUhiGtMGTISIvAX5BcA5LwZPA3qp6YqL6G2GY5ncBIc3vdfFSlUc1H34F2NC46veo6ven/FVuTajkQnlf/mNLpywBhPPvJX35jy05LAHbEHLO3ztGlgcIZ91Xyf3cWuiDod0KqO5vXWwdP0eXD+W+vwnu2U3/g/fVEsAXjMfFo8CLpmrbLQATkOjL/zpCEBPLOjthCRCRrYGfY/vlfxuwEiGxjhW3ECwBsw3rHAgR2RB4ASHU500ajsz1AhH5NPBfBlV9QVUPNqjHhMrCcSohxn8Kbge2UdUbE9Vfm+pc+rnEHzO/hGDVyX7mvw1E5CPAF7FbH/5MCPc9YfRHVwDGIdHifw6wI8E5yLruopWARIv/LQSLwvMJ6TKHQgnoK8O4FdDC4j9CMUqAm/7jEJF3EhL+zDSqcn9V/dKE/5vb/FFaIY3Z/2xgmcRtFLkdQBqz/2xgnVFtbEnYK0/WhpdWxsrLGJKtAMIEfprxmJys3Ab8QwHP0E3/8X24DXbOo3OAFSdsK/fNllRIszCfw6jFP3FbRSkBtLD4j2rLlYAhKMARRs8u26kA2l/8R0pWJQD3+rfsy00I0RwtxsXRE7aT+0ZLKIQIXgfQ0uI/qt2hVQKA19HS4j+qzVRKwEty92dfCmHxvMbguWUJEES+xX+kZFECsAv4Mx/YMPc4LKEAawN3GPTpAiZwbu51LgARWUlEDiY4XR2D7b78ucCOqvrYRD9Q1a8B+xIekhVbAmeKiOWeeC1E5HUk2vPXSfblVfV8YHuCB6wVawNXicgvRWR7ESntOOhQoR3OFdDinv9kjKS+toi7XwfLNL+92vefhDcQsv7FMpOJsnDm1nIyaVYbAl8j3ZG03wHL1pBnaCwBhC//R43vZTY1TPGksQSMlOuBfeo8Xy+NxlGntgLI/+U/trRmCcBN/yn6dE/s14RnWMSy32iLHSrAPwG/TNCxo8u5NFgcGAIlgAIW/1GypFQCFHgQ+DywVu6xPYyFDm0FUN7iP1KSKwG46T9Fn6ZY/BX46TPayn2zLXTmsoTF9boWXrhGi/8oWTurBFDQ4j9KptRKgBJM1acCW+Ye68NW6MCpAMpd/EdKUiUAO6//Q3KPtxIK6RZ/JeSmeFpgsew3nLAj1yJ8oT3Q0ov2ewzMwnRQCSBkuipq8R8lWxtKwEi5FPgXaiTj8DLl8yt2K4B0i/8C4/qSKAHYmf4vwU3/kHbxHyn7Pq3N3DedoBO3AE4hfJm1MekrYfE3W2DpkBJAwYv/KBnbVAIUuAv4OLBq7veh64VCtwJIt/gflmi8mioBuOnfepy3sfgrcMnT2s1940adtwThy+uPLXTg2JJqYS1eCaADi/8oWdtWAkYmt28Bm+R+R7pcKGwrgHSL/ycSj1czJQA3/VuO77YW/5Gy/uK2c998ZMetSogfbhUwoUnZK+H9FasE0KHFf5TMv884Ts4Bdgam5X5vulgoZCuAdIv/f43TVpFKAG76txzXbS/+ChyxuP3cHdCw0zYGvkm6DFt1yr3ASgnvtTglgG4u/u8tYKwocBOwP7BC7veoS4UCtgJIt/h/bJI2i1ICcNO/5ZjOsfgrYa4NeYByd0KNzppGCLBxdoYOm6p8PfG9F6MEAFvRvcV/ReDuAsbJ6PIw8CVgvdzvVlcKGbcCSLf4/+cAbRejBOCmf6uxnGvxHykvU1Wyd8QAHbU88BHgxoydNVVZRPqzxtmVADq4+Fdyf62AMTJRWUhYWF6f+13rQiHDVgDpFv9Da8iQXQnATf9WYzj34q/AB1WV7J0xSSetR9A2rbIipS5Xph7UZFQCCIt/55LtAK/EZtJqo1xNmByyZrIruWC3FbAIeNeA7aVY/L/a4N53SiDHQEoAsCY2vla9Nv1TxuKvwAmqSvYOGaeDtqleuK5M2qPLv7fQP60rAXR38Z8OXFHAuKhb7gU+Daye+30ssWC3FbAA+BDVfug47axJCE+b4hnv1+C+/yGRLHOA7afo7+uN2uqt6Z9yFn8FLlPVyhEgM1XCjvcQTP0bZxYnhkeBDVT1jpSNiMjewFewTV50PmESeFoiHRHZCvgFYJlcaMrEPhaIyP7AF1O2kZgnCDEtjlXVS3MLUxIicgTwMaPqrgZ+RsjhMQ1YCXg9YU5a1qiNseylqt+qc4GIrEaIMZECBX4N/ICggD4CbAq8CdiOoEzH8gfgNaq60KCuTiEiewInYjtn30ZQUpvwOLB8bo1odeBThAGXWyOyKj9sqe+SWwJIl153nRb653kER7vc48GqXAC8gx7vnY55vlZbAbnKLg3uefkC5G5aemv6J82X/8XAGsRZyjfL1SEbAycRtJDcA3OkPAr82KiuN7fUj8mUADq8+Fd9c6qBvLdT3qmTW4GDyZDpsbSC3VZAjrJjg/udVoDcTUsvTf+kW/xXqOqPyXHz/rY7Y13gewk6JKbMBg4EVqxkPN2gzr8BS7fUpymUgEvp9uK/vZHM/1zVtwkhot/8AsbrSLkH2I+e5x0AjizgWTQp2zS831QpzFOWXnr9k3jxr9o4OaKur7XVEc8B/gf7JBcx5TzgbWMHJrA2Ni/ZkS0OtBRKgGWZTXuL/9KEYDuxMv9sgnH8CcI+bO4+HSl/IwQ5GteRbdgL3d0KeEXD++3adul84EW5x0mGcZli8b+IMQHECB+vTev7SepOWB44nPZjsE9UFgDfpQqCMInchxi1tUGLA65UJWA2LS3+VT9YnBN/bDKZCYvOrsBlBfTvSLmSSTy5h7kAm9O9rYAXN7zXvxUge53SO9M/LS3+VVvbRtT5q5SdsDPlaKv3EpwNVxtQ9iWAPxm0e07LA680JWA27S7+G2BjZaoToGUr4Ee0m31ysvKrQcf5MBXgowX0fZ2ybsP7vLoA2Qctv6Fnpn9aXPyr9l4aUe95KTpgCeC/Cxh8ClwF7AEs2eA+tjJ6kLu2PABLUQJm0+LiX937OQZyXwss0aDtdYBjgIcK6Pu7gTe02fclFGBWAX0/aHlOw3u8qADZBynXU/lV9aXQ8uJftblBRN2XmcYBEJF1COdIX2FWaX0WEc70Hquq58RUJCLfBnaPlOdewlbAg5H1DEyiOAF1aOWc/2hEZDfgOwZVvU5Vfx8hx3KEMfNvwD8ayNOURYTtkE+q6qKMcrSGiMwkfHVulVuWAdiCsNVUl6+Td34dhDmE0Og35hakLRKd878I+CdVfXiSdtcmfGw14XpL7eetwIPk0zgfJoQONkuuAjybMJhjZTs+gzaayxIwm/a//FfCZrtplqFMAuxIWJByvRNKOMbYmy0BYBVsstV5aVYWAK/NPQ5aHnMpvvwvZICMoQTH5KZt3Gpx89MJ0dZyDbibCBEEk6RXBf7VQMZFwCszDMy2lYDZtLz4V/f5dQPZ5wDPTiTfRsA3yJe++m6CRabV55KrAKsCZ2Xq6z6X2TQ83dDVQrrFf/kB248JDnV/7M1PIwT0yTHYziE4Gk5L/ICFEIUtVt4ryOAQQ3tKwGzyLP6vMrq/f21B1mcTwtfekeF9mQds1/bzyVUIc9Mn6GZOkS6WM4CVcz/3lsdY1sW/kmG5iLbmxr5gs1oeZPMJAVk2aflBvwSbY0b7ZxqoqZWA2eRZ/GcQjr/Fyn8BLZ6jJzjKvpcQG73N9+cxeuYcCLyBED2xzX7uU5lLiEzZqzgUBD+frIt/JUfMFsCDTW9egG+2OMjuAj4OrJrxgX/B4D4eBp6XSf6jEj2bx4EXZrqnAwzkfwJ4ScZx9RpCwp+2jhE+RsModF0tBIVrN2yO0P2dENRst5ael2U5lhA45kaDuu4DDgNWyf18M4ynbbCPO3EBNRf/SpZ1I9q8vcnNC2E/s40Beykh4Er2cKeErGAWXxKnZpD9zaRNjHNu2xMB8HxsAkx9IffYqu5nLeDzwAMtvFdzCacdst93hn7eHvg59Y9rXgl8AFi2qmfrFp6TdTmqkl2ANwI/pZ7iuYBgtdqHlkKdl1aAFwD3Gz+XRot/Jc+LI9q9odYxQBER4GvABwe+qD4LCQPzWFU9P2E7tRGRtwI/Majqzap6pkE9UyIiHyZo/hbpPCfjr8AOqvrXxO0AICI/Bv5fZDW3ETKUzTUQyQQRWZbwdfkRYP2ETc0lRA48L2EbxVLNZesDryQcq3shT6W8voWwrTVSbho7rkVkB8Jx4y5xnKruN/ofRGRVYENCHIvRZTnCGLmDsOhfAlypqgtak7YwRGR5wtG8FxtWeyHhqN8jDWV6BeHZNOGqutrGf5BOO30COA5YO7eWN0UfnGFwrzeRWIMmLPhfSvi8xitzaOHLEtjBSN635h5Pk9yjEL5WU4YbngOsmfteu1iAXVp+tyzKt3P3W1cLweftNOPn0fjLf5RcW8e0P40BEZHNgc8O+vuanAFspKofVtVbErVhxX40C+AxmhcQvMGTUAWjOY0QjKZNVgbOEpH3pWpARJYhKIqxnKGqPzWoJwkaOJMQ53534M4EzawMnCwiqa1Dw8iyuQVoQBdlLoUjgJ0M67uAiC//USwTce1jAykAlenj/wjONJZcSfBK3klV/2JcdxI0RLf7tEFVB4nIBgb1PA0ReT5wPuErOQczgVkickRlZrXm4wQTZQyPERS54qkUge8QTNSfIl75HMuWBGcupx5dXEy7KHN2ROTdwKGGVV5A2H6LXfwh7pnOHdQCcDywXkRD43EwISvf2cb1tsExwJ8j65gJfNVAlsWIyGaE/aBNLOttyMeA74vIUlYVisiLCNtQsXyyA5amp6Gqc1X1MMK+9R+Mq/+YiGxtXOews9zUPymOLsqclcry/U3DKq2+/EdIawEQkd2B90Q0MhE7E85xdw5VfYJwtj6WbUTkXwzqQUR2Bn4PrGFRnxG7AGdXjkYWfI14K9S1hMiVXWV1QlwKS6YB3xORVYzrHWa6+DXdRZmzISJLEzJ9Lm1U5cji/6hRfRD3TCdXAERkfWz2W8djC0II106iIWHMLIOqjhGRFWMqEJEDgB9T5gv+auASEdkwppJKEX1tpCwKfKhS4DqHiDyPcELGakIazfOwGc99ocR3bSq6KHNO9iMcz7XgfOwXf4izAEy5BXAsaQfN7iJyUML6U3MQ4dx2DM+hoXOliMwQkeMJWxIDO3RmYF3gIhHZtsnFIrIyIRBTLN/Wwo6WDkr1NXIaaS08O1ZHXZ2p6eJi2kWZs1B9lH3UqLrzCXv+1os/RG4BTGiCF5HXAv8UUfmgHCUi16vqGS20ZYqq3i8ihxACI8XwARGZpaoDn+cUkRWAUwkBPbrAs4AzRWQfVa3bX58jxNGPYQ7B76RzVM6U3wFe1kJzR4jI6dqTFMIRxOyn30rInNqEaTTfAnIfgMH5KCHLaCxXkG7xh0gnwMnOF1okwBm0PEzGcKyR5zBbTxYErA38qcXnY10+z4Cxwwmhci1ibu+Ze6xEjLFPtvx8ds19z6UX4s6Evyui3aUi2l2Qu9+6UAjbYY8ZvEf3AGsllvXLEfIdMK7ZWER2JEy8bbE8cLqhs1hraHgKexNCasbwUgY4miYiryR4+ltGo2qbg4AfVmf6J0REZhBOoMQeJzwf+HZkHVkQkV0IWe3a5JMiYn3kd9iI+fJq/DWoqvMJ0VKbMLN6p5zJOYx4P5sngLep6q0G8kyGrRNgZW48MqLSpqwD/EREZmZoOwpVvZoQdS+WT1WOXuMiIu8gpEF+rkFbufln4FwRWW2S3+xPvMf7E8DelaLWKaojSDkUl3WB92dot0vEmNNjQ0/HXO/bAJNQOb7vaVDVvtqOv5G5E+C7gI0jKo2hyycDDifElo9heYLj5TMQkUOBH5DGAzwXmwN/EJFnLPIishahT2P5oqr+yaCeVqkUwdPI97w/PpWFpufE7b3GEXO9OwJOzpHE5035itb3c2qKeRyAwyIqtKCTJwM0OHl8xKCqt4vIYudLEVlCRL4FfIZ4U3iJrAlcICLbj/n3/yF+srqFsH/eKVry+J+K1Uib9KvruAIwZOrtmnAAABjgSURBVIjIy4G3RVZzAcFy2RZ2kQBF5FWkzUA2KEeJyFtyC1EXVf0JNhnCviIiS4nISsCvgD0M6iyZ5YEzRGRfgOrZ72xQ736qah06Nykte/xPxftyC1AwWXwAKlwBSMPukdcrsL+qxvqD1cHUAvDeGEkI+dktmAb873im4Q5glSzoOELqyW2iJXom9wLXRVx/rpUgo5gOHCciXyZ4tsZymnbwaCnBAvcOo7pi38dNRKTLzqYpyekDEKNAuA/AxOwYef0PVfVSE0kGx8YJsPIOfWekMAcSTLcWdPJkgNolC9qLNNaYawk50G+IqONYYFfgcROJns6HCcccY5hL+5kQo6k8/q224B4jKI+XRdaTIgx4p6msNDG+Gb4FUBgisglxUf+eJGGG10kwcwLclhCVrim3EUKJHkAwW1uwDt08GWCRLCgFvwa2qJSUKFT1e4QxMye2rgQc3sLxG1OMPf4V2F1VLyPeB+I9ibI6dpllaO6Ps0hV50W27wqAPbFbzieq6l9NJKmH2RZArPn/c6r6uKouJCSBuT6yvhE6dzJA7ZIFWXIC8GZV/btVhap6HiHWf46BPxHXMMFJilIRkTWw9fg/XFVPBai2QS6PqGsd2o0J0gVymv9j6/AtgPHZKeLaueRzNo53AqyO+8TEAL+LUSkTq0XmLcTHyR+hcycDNCQL+k5uOQhR9A5U1Q+mcE6ptN5XETIR5kYJyX7adMKJovL4Px07j/8fqOqnxvzb2L/XxbcBnk7OEwAQ5wPgFoAxVLFINo+o4quqereVPDUxsQC8iTjN8OtVhKrFqOqNwNsJgVgs6OLJAItkQTE8RohGdUzKRlT1AWA74KSU7QzAN1X1wswyDEwCj/8/Ms6JEVU9DZgdUW/s0ahhI+cJAPAtAGt2JO6I9SlWgtSh2hpvGtlRgXkjCkDsBDRuB6jqOQSnLgs6dzJAVe/DLqNUXe4CXquqP22jsWr7ZzfyxZG4HzgkU9tNsfT4vwN46yT7yz+MqPu5IvL8iOuHjdwWAFcAbIn5sLyTeEfbpsR8/c9TVR1RAF4aUdE1qjrhkTJVPYF+nww4kXCcr02uBl5ZOYG1SmV+fi+woOWmD6osEZ1ARN6JXYz/x4CdVfXOSX5zamQbMXPEsOE+AENCtQXXKE15xRkZw4xHmf/hqRzyMS/3IOaP3p4MqAbHh4hPFjQovyB4+seGJW6Mqp4MvIHwVd4Gv1fVWS21FU3l8T8Lm8iOoz3+J/6R6h8IaWib4grAU+TeAnAfADteRNxCerqVIA2ItkRNq76mJ0xAMwBTKgB9PxlQJQtqw0v0OGAnTZd7emBU9QKCc+BfEjf1d0LMhE6Q0uN/AH4U0c6mEdcOG74FMDzEON/OBc62EqQBJhaAGM3+AVUdKKCMnwzgSCBVZLqFwL+p6n6VslUEqnoT4Zjg71I1Qchdf2Oi+k1JEON/PI//yYjZinILwFP4FsDwsHrEtWeNdX5vmagogBCvAFxd58d9PhlQbQXsSjinbsmjhP1fi/C55qjqg8AbCSZva/6rK+F+K4//WcQdNxrNuB7/U1DrfR3DuiKyQsT1w4RbAIaHGGU8l/PfCFFRACEoADGpf2tPKH0+GVBZQbYEzjSq8s/Alqr6c6P6kqCqT6jqHsDBgIXG/ASwl6p+xqCutjiM+FDbI0zl8T8RNwJNo9AJ0In3rAXcB2B4iLEA3GUmRTOitwBmAM+OqKTRF4WqnlAlGbGI1z5yMuAV1bG7olHVhyurxZHAvwNNnBkfAg4n5J3uTNAbVf2CiJwCHE2wBDXhb8CeqpoiIVESMnj8j4uqLhSRa2luhYiZKxYjIksBmxA3+TbhLuAqA7OtWwCGhxgLQK7gPyNEj8MZxGkR10ZcewAh2c2bIuoYYR3CyYBtqjC8RVPt039URI4nfBnuSsiGNxWLCMcKP6aqbXnYm6KqtwDvEJFtgC8x+FflncARhJjbxT/jEUTkZbTs8T8FMQpAzFwxkuzoEGAjYImYuiJ4slKCjq7yWTTBfQCGh95bAGK8kRvHla++RnYBLgY2iJBhhC0IX8U5MjI1okrKs4eIfJRwbG5bQtz11YAVgJsJVpargauAS7uW5GYiVPUcEdmUsBhtXJVNqj+XJSQZuhn4LSGJ0UWqmiL7YDKqENvfJ4/H/0TE5IJodB8isgpwPM2tPpbMIIyzk0Tk7cAHVPXemnXk3gJwC4AdXVYAop0AYy0AUaY0Vf17ZQ6/BFg5pq6KQ0Tk510KBwugqvcAJ1cFABGZpqqL8kmVnsoScklVFiMikjG4hiXHAP9oVFddj/+JiHlnm84V/0dcsJVU7AysLCJb13zXcm8BuA+AASIyDXhuw8sXAnUVR2tMnABjvk6iHbqMTwZMB74rIp03cw374j8Zw7D4i8j2hABQFjTx+J+ImHe29lwhIh+izMV/hK2o74vU5S0AVwCe4jkMtvU6HvcVMEebxAHIZgEYwfhkwHrAF43qcpzaVCbvbxlV19TjfyJaswCIyAzg8xHttcVnRGTJGr/PugVQ+cA0/WCaXjlhOhDTD22HOh+P+EiAxFkAzDrBOGfAv3YlPoAzlHyd4McRS2OP/0mIeWfrzhUvJpzSKZ2lqXfEMfcWQGw9bgUYDkwsAE3TCQLU0ZoHwTJnwIkdSxrkDAEi8j5s0udaePyPR8w7W3eueHlEW21TJ9RxCQqA+wE4JpEAH8skwDMwzhnwHOAbBvU4zkCIyNrYWbEsPP7HI3rSqMFKEW21TR1Zc/sAxNbTeR8pBzByAizKlGScM2BnEdnToB7HmZQq1O93CMc3Y7Hy+B+PNr9eL49oq22urPHb3McAobB528mCyRZAcQPJ+GTAEV1JHex0mrcArzOox9LjfzyivxpqcBlhK6MLXFHjtyVsARQ3bzutY+IEGDOQoiKDTUZ1MuBAg6pWJ0Tac5yUHGJQxxxsPf7Ho7XFS1UfAlJsY1hz+qBhxKuTDTF+FCUoAL4FMBwMpwVgFF8mRIGL5cDKROs45ojIloQIjrF80Njjfzza/nrdF7gnos3UzAE+WOP3Mf33uGEYa3cCdIbLCXAsVUCYPYAHI6vaANgpXiLHGReLr/+TVPVHBvVMRZtOgFQ5K3YjJLAqjUeA96lqnaQuJZj/Y+tyBWA4GD4nwLGo6h2Er4hYDjaow3GeRpXVcofIam4D9jMQZxBaX8BU9SxCAiCrNNgW/AbYqEEqbVcAnFIwSQZU/EBS1e+LyM6EI4JNeY2IbKGqF1jJ5TgExTJme2nkvH9Mkp46tOkEuJhKkX+ziGxMiA+wOXnSAV9KcE68qmHI6Zj9c6sTAOA+AI5ROuDiFYCKfQhxu2PyNx+CbwU4RojImsC7I6v5kqqebSHPgGT9glXVkeyW34ytKxOlWADcB6DHVD5tMVF8O+EEuBhVfQD4SGQ1O4rIhhbyOA7w78Tltb8dONRIlkEpZQHrKqX0XyfmbScZS9Pc8rhwJLV6ZxSAih8Df4m4XoD/MJLF6TEisiLw/shqvqiqJgm1alDKAtZVSogCGFuXbwF0H5OtvGLjAIxHlX7x6MhqdvYjgY4B2xE3kT4EnGAkSx2y+AAMESVEAYRufbg59pic5umaBQDguwRnnqY8G3ipkSxOf4nNcf9VVbVcEKZERJag+ZaFAikDFHWFUiwo7gPQb8wsAMXGARiPau/i2MhqtrOQxek1MWNoPvAlK0FqEPO+zmvoNT9slKIAdO3DzbEl+gggdNMCAHA8EHNsKvbrzekxIvICYN2IKmap6r1W8tSglMWry/gxQKcEersFgKo+DHw9ooqtRGQpK3mc3hHz9W/hx9IUVwDiKaUPOzdvO6YU4QSYcyCdEnHtUsAWVoI4vSPGgnS5qt5kJkk93AEwnlIUAPcB6Df9tQBUXAE8EHG9+wE4tRGRacDrI6r4jZUsDShl8eoyvgXglEC/LQDVkcCYCGruB+A0YTNg5YjrXQHoNqX0YSfnbceMIpwAW40DMA4xk+mmIrKKmSROX4hRHOcDOXNRlLJ4dZlS+jCmrqU9Fkrn6f0WAMQpANOAl1kJ4vSGV0Rce36GyH+jKWXx6jJFBAJS1YUEhbIJQv6PNyeOIuIAZNUkK2eq2RFVPNdIFKc/PCfi2pzmfzAyG/acUkIBx9bnfgDdxsYCUAXWebJhRSVokr+NuNYVAKcuMQpAzFi1wC0A8ZTUh1223jpxmFkAnvYPDcg9kP4aca0rAE5dYhSAG82kaEZJi1dXKakPuzxvO3GYOQFCtwfSPRHXugLgDIyILAk8q+Hlj6vqQ5byNKCkxaurlHIMMLY+3wLoNiZbADOqP7usANwdca2pAlAlW1kf+5drEXCjqsbEPXDiWTXi2hyhf8fiCkA8JfVhl+dtJw6TLYBhUACyWgBEZDpwEPB2YCNgydg6J2nrFuBi4FBVvTlVO86ExJj/S1AAPBJgBJUFaHpEFdaOlF2et504zI4BQrdjAcQoADETOiKyPnAh8FnCkcJki3/F2sAuwNUi8v7EbTnPpOsKQElfr10katKtgpdZ4gpAfzG1AHQqJfAY7iXkKm9yHHFVEZEmaU6rIELnksePYDngBBFBVb+Rof2+0mcFwI8BlnUEENwHoM+4EyCAqj4JzGl4+QygaTTA48jvRPjfIhKTltapR58VALcAlNd/nZ23nWiK2QIoYSC1GhBDRF4NvCuiTSuWI2w/OO1Q2hdgXUpbwLpGEVEAR9H1edtpjscByMhrcgswilflFsDpDO4EGEdpCqBHAuwvbgHIyOa5BRjF2iISk53O6Q9uAYijtP6LsSr0cd4eJtwCkJHVcwswhty+CE43KG0B6xql9Z/P2z2kOno+M6KKoToGmIMrcwswivnEhUN2+kNpC1jXcB8ApwRint2C0cdR3QLQjD/mFmAU11QnIRxnKtwHIA73AXBKwOw9HlEAuhwHIAe/Au7PLUTF/+YWwCkfEVmKp973ujypqk9YytNRSrOg+IdbPzGL5+EWgAao6v3AvrnlIAQi+p/cQjidoLTFq4uUtgXgToD9xNwC4ApATVT1FOD4jCLMBnZvEsXQ6SWuAMTjWwBOCZhEAQRXAKJQ1b2Bd9I8EmFTvglsrKqzW27X6S6uAMRTWh/6vN1PzLYAhiEbYFZU9VQROQd4PSE+wKbA8sbNLARuAC4FLlTVK4zrd4af0havLlLaFoDP2/3EbAvAFQADKp+AU6riOCXiJwDiKU2Jch+AflKUE2Af4wA4TtcobfHqIqX5ADxGyITahCVFZMbUP3MKxJ0AHcephSsA8RTVh5UD8LyIKnzu7ibmToAeB8Bxhhszs2GPKc0HAPzjrY+YbwHEvOBLiMgSEdc7jpMe9wGIp7QtAIhTLPwoYDex3QKoYgO7KclxhpeizNcdpcQ+dAtA/zC3AIAPJMcZZkpcvLqGbwE4JWDuBPiM/6iJDyTHKRtXACIQEaHMbRSft/uHuRMg+EBynGHGFYA4lgGk4bULVXW+pTCjcB+A/lHcFoDHAnCcsinx67VLlKpA+Ydb/0iyBeBHAR1neCl1AesKpfafKwD9ozgLgA8kxykbjwMQR4lHAGPr9i2AbuJOgI7j1KLUL9iuUOIJgNi6fd7uJu4E6DhOLVwBiKPU/vN5u3/4FoDjOLVwJ8A4XAFwSsG3ABzHqUWpC1hXcB8ApxTcAuA4Ti1cAYjDfQCcUijOAuBxABynbFwBiKPU/vMPtx4hIkvy9HW7DovGBqTyOACOM+RUYWyXjqjCjwH6FoBTBjFr7TMS/vkWgOMMPzEWunmqqmaSdJdStwB83u4Xps68rgA4zvBTqvm6S5Tah+4D0C9MA3q5AuA4w0+pi1eXKLUPfd7uF24BcBynFqUuXl0iZr+81C0A9wHoHmZRAMEVAMfpA64AxFNqH/q83S+K3ALwY4COUy4eBTCeIhUAVZ0HLGp4+fTqWJnTHXwLwHGcWhS5eHWMUo8Bxtbv2wDdIpkFwOMAOM5w4qmA4yn1GCD4x1ufKNICsEwVbMRxnPJwC0A8JfehKwD9IY0ToKouABY2rDg20pjjOOkoefHqCiX3oSsA/SHZFgD4QHKcYcSdAOMp9RhgbP3uA9Atkm0BjPuDGrgC4DhlUvLXa/GIyHQgxlveLQCOFW4BcBynFq4AxBHTf4+r6pNmkoyPz9v9oVgLgMcCcJwycQUgjpLN/+DHAPtEskiA4Jqk4wwjrgDEUXr/eUKg/pB0C8BjATjO8GH61dBDSlcA/MOtPxS7BeADyXHKpPQFrHRK7z+ft/uDOwE6jlOL0hew0nEfAKcU3ALgOE4tXAGIo/T+cx+A/uBOgI7j1MIDAcVRugLg83Z/8C0Ax3FqUfoCVjq+BeCUQrFbAB4HwHHKxBWAOErvP/9w6w9+DNBxnFp4OuA4SlcA3AegB4jINGCpiCrcCdBx+oSIzABmNrx8YZUltO/EzG2lbwH4vN0dYjLuPjFeSGpXABxnuHEHwHhi9slL3wJwH4DuYG7JcwXAcYab0s3XXaD0PvR5ux+YK/OuADjOcFP64tUFSt8CcB+AfuAWAMdxauEKQDzDvAWwjIiImSROStwC4DhOLVwBiKfoPlTVx4FnOHgNiOBHuLuCeVIvjwPgOMONOwHGU7QCYNCOf7x1g+RbAB4HwHGGC48BEE/pPgCx7fjc3Q18C8BxnFp04eu1dEr3AYhtx48CdoOinQBnVkFHHMcpB1cA4ulCH/rH2/CT1gKgqouA+RGN+EBynLLowuJVOl3YAnAFYPhJ7gQIPpAcZ5hwJ8AIRGRJoKllU2nPjyJG0fAtgG6QfAsAXAFwnGHCLQBxxPTfPFVVM0kmx+ft4Se5E+CEPxwQPwroOGXhCkAcXTD/gysAfcAtAI7j1MIVgDi60n8+bw8/rVgAPBaA4wwPHgcgji4cAYxty30AuoE7ATqOUwt3AoyjKxYADwQ0/PgWgOM4tejKAlYq7gPglELxToA+kBynLFwBiMO3AJxScAuA4zi1cAUgjq70n8/bw08rFoAYs9W8iGtjiGk3l8y58T6rT0yUzFx9FiNzmybsUolxhHzETIq0bfXV2bNrc2BMm+O+y+MpAFdGNHJdxLUxXNXwuntU9R5TSbpD0z6LvbbLXBNxba4+u6HhdQ8Ct1gK0lFi5rSYubTNtnLN21mp5v6m83+O97npc5oL3Djef4ynAJzbsBHIN5Aubfm6YaDpvd+hqnebStIdLo+4NtdYa6oAnF/lBuk7NwBN++H3loJMhqreDNze8PJeKgAVXVo7mj6nC1X1yfH+4xkKgKreSTPt5teqem+D6yw4Exj3BqfgNGtBOsQlQJPn1ds+U9W7aKYEXKiq91vLMyCnAo83uO4X1oJ0EVWdD5zS4NLbgD8bizMVv2xwze3A2daCdIjTG1zzJGHNaZsfAQsaXDfhuzyeBQBgT+CJGg0sAPatI5ElqnotcFTNy84BTkwgTidQ1UeAfWpeditwaAJxusQe1FtQ5wN7JZJlSlT1euCzNS87DzghgThd5QDg4Rq/XwTs3mIegBEOISgeddhfVfvs7PkNwnivw1HVmtMqqnoT9de5S4DjJqt03AIcSMhmNVVZCOw7UT1tFWAmcNmAMt8PrJNb5hIKcNKAfbYAeENueUsowEED9pkC+xUg75KErb1B5J0DrJVb5tIKsCtB8RukD4/MKOeW1bs6iJyzcvdrCQX4B4LPyyB9dhkwM6OsSwEXDijrQ8B6k9Y3RWNvBe6cpIE7gW1yP8AxnXN0pZRMJPNpwGq5ZS2lAEKw3jw6xaDfKLesJRVgB+COSfrsVuCNueUcJe904EjC1+lEMp8BPC+3rKUW4JXAzZP03/3AewqQcyPgD5PIOQ/4YG45SyrAGtX4n6jPFlZry1IFyDqjepcnW+d+yQCKvFQVToiIrEjYEnhZVZYkmEzOBX6qqnMmrSADIrI5sBNB3pcAs4E/Aueo6s8yilYsIrIusAuwObAZ8AChzy4CTtYJnEj6jIisRPgy3LwqSnAO+iNwkqr+PaN44yIimxKUl60J78ZfCQreb1W1yX5orxCRZxE+jF4HvJanFOTLCF/U92UUbzEiMh14L7AFYR58PkEp+B1wuqqO6xXed0RkR2Ab4OXAOoSTP5cR+qwop3ER2YSn3uVNCJ7+lxHWuZ8MVMdUCoDjOI7jOMPHRE6AjuM4juMMMa4AOI7jOE4PcQXAcRzHcXqIKwCO4ziO00NcAXAcx3GcHuIKgOM4juP0EFcAHMdxHKeHuALgOI7jOD3EFQDHcRzH6SGuADiO4zhOD3EFwHEcx3F6iCsAjuM4jtNDXAFwHMdxnB7iCoDjOI7j9BBXABzHcRynh7gC4DiO4zg9xBUAx3Ecx+khrgA4juM4Tg9xBcBxHMdxeogrAI7jOI7TQ1wBcBzHcZwe4gqA4ziO4/QQVwAcx3Ecp4e4AuA4juM4PcQVAMdxHMfpIa4AOI7jOE4PcQXAcRzHcXqIKwCO4ziO00NcAXAcx3GcHuIKgOM4juP0EFcAHMdxHKeH/H8hekczV4cYLQAAAABJRU5ErkJggg==;" parent="1" vertex="1">
                    <mxGeometry x="564.1" y="160" width="46" height="46" as="geometry"/>
                </mxCell>
                <mxCell id="7VhcuU38_8ilDAtrPy3k-54" value="&lt;i&gt;How is GDP defined ?&lt;/i&gt;" style="whiteSpace=wrap;html=1;shape=mxgraph.basic.roundRectCallout;dx=30;dy=15;size=5;boundedLbl=1;direction=east;flipV=0;flipH=1;" parent="1" vertex="1">
                    <mxGeometry x="470" y="100" width="100" height="60" as="geometry"/>
                </mxCell>
                <mxCell id="7VhcuU38_8ilDAtrPy3k-67" value="Source 1" style="rounded=1;whiteSpace=wrap;html=1;fillColor=none;" parent="1" vertex="1">
                    <mxGeometry x="631.5" y="380" width="70" height="20" as="geometry"/>
                </mxCell>
                <mxCell id="7VhcuU38_8ilDAtrPy3k-70" value="Source 2" style="rounded=1;whiteSpace=wrap;html=1;fillColor=none;" parent="1" vertex="1">
                    <mxGeometry x="631.5" y="410" width="70" height="20" as="geometry"/>
                </mxCell>
                <mxCell id="7VhcuU38_8ilDAtrPy3k-71" value="" style="endArrow=none;dashed=1;html=1;dashPattern=1 3;strokeWidth=2;rounded=0;" parent="1" edge="1">
                    <mxGeometry width="50" height="50" relative="1" as="geometry">
                        <mxPoint x="651.5" y="439.75" as="sourcePoint"/>
                        <mxPoint x="681.5" y="439.75" as="targetPoint"/>
                    </mxGeometry>
                </mxCell>
                <mxCell id="7VhcuU38_8ilDAtrPy3k-72" value="Source n" style="rounded=1;whiteSpace=wrap;html=1;fillColor=none;" parent="1" vertex="1">
                    <mxGeometry x="631.5" y="450" width="70" height="20" as="geometry"/>
                </mxCell>
                <mxCell id="7VhcuU38_8ilDAtrPy3k-73" value="" style="shape=image;verticalLabelPosition=bottom;labelBackgroundColor=default;verticalAlign=top;aspect=fixed;imageAspect=0;image=data:image/png,iVBORw0KGgoAAAANSUhEUgAAAgAAAAIACAYAAAD0eNT6AAAACXBIWXMAAA7DAAAOwwHHb6hkAAAAGXRFWHRTb2Z0d2FyZQB3d3cuaW5rc2NhcGUub3Jnm+48GgAAIABJREFUeJzt3XecJVWd//9Xd88MM4Qh55wRjKyRKOq6iiBpRF1/irp+1fVrJpp2kRUlYwJl19+6pgUFFVQMqyBpQNeAqEgOMwzQMzCECcCk7u8fpxt6em73rXtvnXqfqvN+Ph6fB4rO1Pmcc6rOuVWnTvVhlo5tgGcBO4z85+2BzYGNgA1HYgCYAUwf+TNLgeXAMLBwXMwB7gHuBe4e+e9mo6YDrwBeC7wA2A2YCaylLFQDLAXuBwaB3wCXA7OBVcpC2Zr61AWwbG0F7APsC7wE2Itw8Y3pceDPwF+A3wPXA7dFPqalZ33go8A/A5uKy5KLBcAZwPnAk+KymFnFdgbeB3yL8Gt8OJFYAFw6UradomVvqXgz4Zeput/lGvcDR7ZtJTOrvWcBnwRuRH/hKRq3AmcBL45QH6YzBfgK+v7lgCHgVKB/0hYzs9p5FvBp4Gb0F5pe427gc8AepdaQVW0KcAn6/uRYPX6I11uY1d4AcBjwS8LsXn1hiRFXA2/lmcWHVh9fRt9/HK3jZ4RFvWZWM+sDHyKtZ/qxYwFwGrBlCfVn8b0VfZ9xTB5XAOtM1IBmlpYtCb+qnkB/8VDFEyN1sE2PdWnx7EJ480PdVxzt4zrivwVkZj1YFzgRX1THxjLgAsJrjZaOqYR30NX9w1E8fg9s3KoxzUxnOnAs8DD6i0SqsQT4FH6emYpz0fcJR+fxR2CTFu1pZgKzgLnoLwx1iXuBo7upaCvNa2nuYtQc4m/4jpqZ1ObAxegvBnWNnxG2NLZqbY43+mlC3ApsjZlVqg94B/AI+otA3WMx4S0Jb3hSjX7gV+jb3VFO3APsiJlVYgfgf9Cf+E2LK/HbAlX4FPq2dpQbcwhvc5hZRIcAj6I/4ZsaC4E3FG4N69RLeOarkI5mxYOEj4WZWcn6CK/2rUJ/oucQFwDTCrWMFbUB4Xaxum0d8WIQeA5mVpqNgZ+jP7lzi+vwToJlugh9mzrixyPAizCznu2NfzUpYx7w/LatZO28D31bOqqLR4GXYmZdOwhYhP5kzj2WENZeWHeeTd7bUecai4GXY2YdewNh+1r1SewIsQJ416QtZq1MB/6Mvv0cmlgCvBIzK+wYwoCjPnkdq8cQYatlK+5r6NvNoY2lwKsxs7ZOxNujph6nTdh6NtYs9G3lSCOWAYdjZhP6V/QnqqNYfGqCNrRgO7xLpWP1WA4chZmt4b3oT1BHZ3FCy5a0KcD16NvHkV6sBN6GmT1tFt7gp44xBPyfFu2Zu9PRt40j3VgJvBMz4yDgKfQnpaP7i9nr12jVfB2EJ7OO9jEEfACzjD0X7+vfhFiENwsC2Ax4AH17OOoRQ8CHMcvQpoRd5tQnoaOcmAdsQb76gJ+gbwdH/cILai0r/cAv0J94jnLjevL9gNCJ6OvfUd/wq7WTGFAXwEr1abwIpom2BWYSPtyUkxcB38LXKevefsDawK/UBUlRn7oAVprXAJcT7gLU3QrgVuA24PaRf95J2AN8KWF9w9KR/+86wIbAuiOxC7D7SOwG7AFMrbDsMc0Cvq8uREXWBf4I7KouyBhDhJ3nrijh7xou4e/oRlnX/D7gLOCjJf19sZ0PvB9dvZtFsy3wEPrbbd3GSuBm4ALCtwrWL7Fu1gZeRbgVeB1h0xB1vt3Go4SNcHLwHfT1PT5OKTE/VQ5lO1mYS6dxAc34gWT2tD7gKvQnVzfxB+BDhFXeVdmMsEL4jyXmUWVcQfMvYu9CX8/j41rCRkRlUeURQ53WaXybctvRTCrFi+VksQg4G9grRmV06NnAOYRHC+p66SQ+GKMyErEr6bXHo8AOJeepyiWW44Q5dRoX4kmANcAW1Gdf9McJt+E3ilITvZlJ+BWzEH09FYklwI5RakJrOnAj+vodH0dEyFWVS0zvpT4fHLuY5qwNskx9D/2J1C6WAp8A1otUB2WaSXh3eCn6emsXl0eqA6Xz0Nfr+DgvUq6qfGJ7D/XZsfH7+A0Tq6lD0Z9A7eJSYPtYFRDRDsBl6OuvXTTpC2hHoK/P8fFnwl2JGFQ5VeHthIW96vYrEufHqQKzeNYB5qI/eSaKucAh0bKvzqGkXc93E2+AqtJ2pPf4ZSmwZ8ScVXlV5c2E13nV7Vgkjo5UB2ZRfAz9STNR/BjYOF7qlduYtLei/US81CsxAPwafT2Oj3+KmbQwryodQj0+SDaP8LqwWfI2IL1fS8OE9+uPpZmbS/UBx5PmL5rFVPsaZdn+DX0djo+Lo2YcqHKr2muBJ3sob1VxfKwKMCtTihfMhcC+MZNOxP6k+dbFOTGTjugg0ntWfBflbkQ1EVV+Cq8m/YW1gzR/fw2ruU0I79GrT5ax8QDh88O52JP01gU8CWwdM+kINgLmoK+7sbECeFnMpMdQ5aiyP+ldu8ZHDj9irMbORX+SjI2/kc/WtGNtB9yCvv7HxhejZlyuPsJaEXWdjY8TYiY9jipHpX2Ax9Dl3i7OjJe6WW82I61naX8j3JHI1SakNQlYSn0WX34YfX2Njyup9hawKk+1vYGH0bd3q/AXAy1Zn0B/gozGPOr5fn/ZtiGt29ifiptuKZ5LWhPZYWA+sGXMpFtQ5ZqC5wML0Lf7+LgtZtJm3RognYFmIXHfj66bvUjnrYz5pL0vwLqEzzur62lsrCIsUquaKt9U7AU8iL79x8aSqBmbden16E+OYcKrfl4os6b9Seczw2+JnGsvvom+fsbHaVEznpgq35TsBtyHvg+MxsK46Zp15xfoT45hwnv+1toJ6NtnmLCpToqOQl834+M36D4Io8o5NTsB96DvC8P4EYAlaGfS+LjG5TRzk5+y9BG+faBup2Fgj8i5dmo9wroRdb2MjccIg4+KKu8UbQfcgb5PXB07UbNOfQ79iTGX+qwwV9qENG5pfjZ2oh36F/R1Mj7eGDXj9lR5p2or9G/VfCZ6lmYduhX9xfLQ6Fk2x2Ho2+su0rlbM4X0fv3/R9SMi1HlnrLNgJvQ1c1+8VM0K24v9BfLH0bPsnl+hL7dXhg9y2Jei74uxsbfSOPDL6r8U7cx8Aeqr5cH0a0HMWtJ/e7/Uvy+fzd2BJ5A23ap7Gp2Btp6GBtPEd5BT4GqDupgfeB6qq2XD1WSmVkHfof2gln3T80qqZ97/y1+ioXMRlsPY+N9kXPthKoO6mImcC3V1Mn9wIxq0jIrZhtgCN2FYiFh9bZ1Zyb6LwcqV7mPSmUDqx/ETrRDqnqok3WAK4hfJ2+oKiGzot6P9oJ5cvQMm+8UtG343vgptpXCZ2DnEL4+mBJVXdTNDOBnxKuPL1eXillxP0B3kVhEehfMOtoYWIyuHb8fP8W2VLmPxgrSXN2tqo86Wos4e2xcTNhm3SwpfcBD6C4SZ8dPMRvnoGvHwQrya0eV+2ik+oEkVX3U1RTgfMqrhy/jwd8SpX7979nxU8zGc9C25a7xU5yUMvdfk+5FXlUndfdG4AG6z/9eYFbVhTbrxDvQXSD+UEF+ubkRXXu+PX56k1Ll/RCwdQX5dUtVL00wA/gI4Q5X0bwfBI4j7a9lmgHwJXQXCL8PW76PomvPL1WQ32RUeR9SRXI9UNVLk0wFDgBOJbwyeBvhzZsnCDuo/hI4HdgH6BeV0axjqnenVxK247RybYHug07qD5x4oGvN9WJyU9QFMAYIz4lfADxvJF4sKsuNwALRsZtskLDH+QsEx36O4JhmVgOeAFRvKrAv4dbVfsBLSWfDnSvVBWiwK9FMADYkbCo1T3BsM7PsbQW8h/BhnUXobv+1i9fEqgDjYHTtemAF+U3Et7pbc72YNdhWwAeAa9A9/+0klhO23rQ41iPUsaJtj6kgv4l4oGvN9WJyfgRQrmnAPwBvBY6gXvV7K2HbVotjMXAHsKfg2DsKjmlmiavTAJWy7YH/C7yTsP1rHd2uLkAGbkMzAdhOcEwzS5wnAL3Zl7AhxeGku+NYUbepC5ABVR1vIjqumSXME4Du7AecSPqbjXTiVnUBMqCaANT1rpSZReQJQGcOBD4HvExdkAjuURcgA3eLjus7AGa2Bk8AitkLOI1m/eIf73F1ATLwmOi4M0XHNbOEeX/kyW1E+ATlTTR78IewSt3iUtXxWqLjmlnCfAegtT7Cq3xnks/e+IvUBciAJwBmlgxPANa0M/A14OXiclRtiboAGfAEwMyS4UcAz+gH3k243f9ybVEklqsLkIFlouPW/RVVM4vAdwCC7YDvEF7vy5FqYDLL1XLCzqFV8nluq/EdAJgF/Il8B3/QrU43y5XirRuf57aanCcA04DzgIsJn0zN2Z3qAphl5i7BMX2e22pynQBsCvwCeJ+6IImYrS6AWWYU55zPc1tNjhOAl5DvQr+J/EhdALPMXJbJMc2ScRTwBLpvcacYg+Q5EVTJ7TvwueVb1AAwH5/nJpRThzge+B4wQ12QxJwFDKkLYZaZVcDZFR7vTHyeW4b6gDPQ/9JOMe7DE6Kq5faLOLd8OzEdmIPPc7Mo+oEL0A+0KcYQcET3VWtdym1AzC3fTs0inIs+z81KNAB8G/1Am2qc0n3VWg9yGxBzy7cbp+Lz3Kw0/cA30A+yqcaF5LX+IyW5DYi55duNfuAifJ6b9awP+Ar6QTbFGAJOwxcFpdwGxNzy7VYfcDLlPA7weW7ZOgv9QJtizMHPAlOQ24CYW769OgqYi89zs459GP1Am1oMAscRVhybXm4DYm75lmE64bXlQXyeW0R96gKU6A2E52g53/ZaDjxK2Gd8NmHnrxvw+78pUQ1OqnM9t3zL1A/sAxw28s+deea7JT7PrWdNOEkAXghcQzPfdR0i3Na7HbgNuBW4h/A1sSXAUsLFYClhAmBpy21AzC1f694A8DLg9YQt2zcHtgHWURaqAysI1+K7eWZidj1h0yeLZEtgHvpb7WXFE8CvgE8QTgbf0muW3G6J55avdW4G4fFFlVsjVxXzgRNo5o9TubWA36Bv5F5jLmHV7stHcrLmUvUxldzytc4cRdipUH0NruIaP6ukOrMRX0LfsN3GE4RvExwKTCm7YixZqv6mklu+VkwfcCJxd0FMLfx6ZolmoW/QbuJW4J3U57mWlUvV71Ryy9famwZcjP5arIrcF6v3bEfgMfQN2Un8CXgjbvjcqfqfSm752uSmAj9Efz1Wx2d6rchc9QNXo2/AonEj4Ta/VyUb6PqhSm752sSmAZeivyanEEOE9Q/WoePRN16RWEJ4xjUQpxqsplT9USW3fK01//JfM+YBa/dSqbl5FvAk+oZrF98hvJ5oNp6qT6rklq+tyYP/xHFCD/WalT7CZj/qBpss7gNeGasCrBFUfVMlt3xtdb7tP3kM4rvEhbwLfWNNFr8i7FxlNhlV/1TJLV97hn/5F4v9uq3gXGwKLETfUK1iBeFZvxf5WRGqfqqSW74WePAvHmd2WcfZOB99I7WKQWDfiHlb86j6qkpu+ZoH/05jdnfVnIc9Cb+y1Y00Pu4Gdo2YtzWTqr+q5JZv7vzMv/MY7KqmM/EL9A00Pm4EtoiZtDWWqs+q5JZvzvzLv7t4qpvKzsEr0TfO+LgKWD9iztZsqn6rklu+ufLg3314AjCBa9E3zti4Cn+e13qj6rsqueWbI9/27y38CKCFf0DfMGPjz8CGUTO2HKj6r0pu+eZmGv7l32tc13GtlyTlD9N8Ul2AMe4GXg08qi6ImVkipgHfBQ5XF6Tm/BbAOC9CPysbjQXAbnHTtYyo+rFKbvnmwr/8y4t9Oqz7xrsEfaMME14/9C5NViZVX1bJLd8c+Jl/eTFI2nfiK7cTsBJ9wwwTdvgzK5OqL6vklm/T+Zd/uXFsZ9XffKejb5Rh4Kd4ZmblU/VnldzybTIP/uXGfcCMjlqg4aYB80mjYTaJnKvlSdWnVXLLt6l827/cGAKO6KgFMnA0+oYZxp/0tXhUfVolt3ybyL/8y49TOmqBTPwMfcN8J3qWljNVv1bJLd+m8S//8uNC/Hh5DZui/+jP48BWsRO1rKn6tkpu+TaJf/mXG0PAaXjwb+kD6BvoA9GztNyp+rZKbvk2hX/5lxtz8DP/Sc1G20A3AgPRs7Tcqfq3Sm75NoEH//JiEDgOf0NmUpsBq9A21CHRszTT9W+V3PKtOw/+3ccywoA/GzgD2JfEb/dPURdgxOvRVtRNwOXC45tZuTwJaLafAkcSBl3rUiqzk0PFx/8svmCYmdWBB/+S9KkLQLjl9Aiwjuj4twF7ER5BmMWmmmiqznVPrK1MHvxLlMIdgBejG/whPKvx4G9mljYP/iVLYQLwCuGxlwLfEx7fzMza8+AfQQoTgJcLj30JsER4fDMzm5wH/0jUE4ABwiMAlW8Kj21mZpPz4B+RegKwJ7rn//cDV4uObWZmk/PgH5l6AvBC4bG/jRf/mZmlyIN/BXKeAPxceGwzM2vNg39F1BOAvUTHfQr4jejYZmbWmgf/CqknAHuKjnsdYRJgZmZp8OBfMeUEYGNgU9Gxfy06rpmZrcmDv4ByArCb8NieAJiZpcGDv4hyArC96LhDwJ9ExzYzs2d48BdSTgC2FR13DvCk6NhmZhZ48BfLcQJwm+i4ZmYWePBPgHICsKXouLeLjmtmZh78k6GcAGwkOu6touOameXOg39ClBOADUXHvUd0XDOznHnwT0yOdwAeFx3XzCxXHvwTpJwAqL4CuER0XDOzHHnwT5RyArCW6LiLRMc1M8uNB/+EKScAU0XHXSw6rplZTjz4J045AZgmOq4fAZiZxeXBvwaUE4DhzI5rZpaDS4Aj8OCfPOUEYLnouOuKjmtm1mTDwOnAG9Fd360DngCYmVmv5gJHAScRPrhmNTBFeGzV7SFPAMzMyjEfOAM4H3hKXBbrkHICoPoinycAZmadWwLMAwaB3wI/GvnnKmWhrHvKCcAjwPaC424iOKaZVatPXQCz1CnXADwkOu7OouOamZklQzkBeFh03F1ExzUzM0tGjhOAXUXHNTMzS4ZyAvCA6Li+A2BmZtlTTgDuFh13R2CG6NhmZmZJUE4A7hEddyrwYtGxzczMkpDjBADgAOGxzczM5JQTgIWEvQAUPAEwM7OsKScAADeJjvsywqMAMzOzLCl3AoQwAThIcNx1gJcA15X0980gvF64PbANsCWwLbAxsAGw4cg/1xlz/GnACuBRwoLI2cBlwPV4a00zM2u4YwifkFTEF7so71TguSPlPhf4JXAv4etXZZVrPnACflOhqVT9XSW3fM2soOehu0A8AAy0Kd+GwCGEb1zPJnztqqryzQVmFapFq5PcBsTc8jWzggaAx9BdJF7Rojx/B5xI+HW/Qli2YcKdhdPQr9Ww8uQ2IOaWr5l14OfoLhIXAGsRfuV/nfBmgnLAnyguwpOApshtQMwtXzPrwMfRXSSWor0D0Umc2m0FW1JyGxBzy9fqYQpwIHAGcC1wO7BkJG4HriE8+j0A/WL5Rtsf/eBahxgCjuqyji0duQ2IueVraZsBHE/4HH3RvrQAOBYvzI5iGrAI/QBbh5gHrN1dNVsichsQc8vX0vUmwjW02z51H3B05aXOwCXoB9e6xAld1rGlIbcBMbd8LT0DwFcpr2+dT/s3yKwD70A/sNYlBnHnq7PcBsTc8rW0DBDnB+YPCHevrQSbEXa/Uw+udYn9uqtmS0BuA2Ju+VpayvzlPz4uxZOA0lyHfmCtS5zZZR2bXm4DYm75WjreRPx+VutJQErvll+oLkCN7KMugJlZwqZTzQ+lw4AfEvaTsR5sCixH/+u6DjHYZR2bXm6/iHPL19JwPNX2t8vxJKBnl6MfXOsQT3VbwSan6jMqueVrelMI7+5X3edq9zggpUcAAN9SF8DMzGptP8Id5arV7nFAahOAHxA+h2uTe0xdADOzRL1OeOyDCeNYLSYBqU0AlgNfUxeiBu5UF8DMLFEvFR//YOC71OBxQGoTAAhf6FulLkTiZqsLYGaWqC3VBaAmjwNSnAAMArepC5G4H6kLYGaWqC3UBRhRq8cBKdgMuBr9KvuUY5A0J24xDRA+y3k2cANhncjykZg/8u/OInxZMvVtklX9RiW3fE1vMfrr9NjwK4IF7A3MQd9Yqcdx3VZwDc0ATqKzV3rmEz6YlOqnO1X9RiW3fE3vDvTX6fHhScAk3gwsRd9Iqcccwg5XOTia3j7dOReYVXmp21P1HZXc8jW9a9Bfq1tF7fYJqMJJwBD6xkk9hoAjuqzjOukHPkd5dXYqaT0yUfUfldzyNb3T0V+vJwrfCRjRD3wefYPUJU7prpprpZ/w+kzZdXcR6UwCVP1HJbd8Te8A9NfrySL7ScA04DvoG6IucSHpDGAxlfXLv1WcWmEek1H1IZXc8jW9KYS1QOrr9mSR7eOAGcDP0TdAHWII+DfyGPyPJn5dHlVZNhNT9SWV3PK1NByH/vrdLrK7EzAd+AX6iq9DzCGPZ/4QJoW9LPgrGnPRL6JU9SeV3PK1NEwnnO/q63i7yGYSsBbwM/QVnnoMEmav6oGqSidRXf0eX1FOE1H1K5Xc8rV0xL6rWFY0/nHANOAn6Cs6tVhGGPBnA2cA+5LH7f6xBqj2052DaDcLUvU1ldzytbScj/46XyQkk4C+Co4xAFxMHrezh4C7gFuAe4B7gfuAh4CFI7GMsIPdUk0Rk3MAYffHKu0PXFfxMUepBqcqzvVWcsu3W1MIPwBeB7wM2BzYauR/e4Awcb2BcMv4emCloIx1VKfx5zLCXYvl6oKU6YvoZ1ex4h7g28D7gBcD65RUZzk5m+rb7cxKMmtN1VdVcsu3UzMIj6UeonhuC4BjSXe3y9RMJXyYR9UXO4lGrQmow0rMTmIxoSO9B9i+xHrK2Q1U347Krymq+q5Kbvl24k30tvj1PsIvRmvPk4CKHU34rK+6MnuNJYSNZI7EM+4Yqnz+PxqDlWTWmqofq+SWbxEDwFcpL9fzSf8jWCnwJKAiLwWeRF+JvcQfCL/0Z5ZcN7a6ZVTftk9Vkllrqv6sklu+7QwAl1B+vj+g4SvJS+JJQGSbU8073TFiBWEr2heXXis2kRVo2npqFcm1oOrbKrnl206Zv/zHR+NfJyuJJwGRTAGuQl9pncYy4Dxgh7IrxNpagqbN168iuRZUfVwlt3wn8ybi5+1JQDGeBERwDvrK6iRWAP+BF/QpPYym7besIrkWVH1dJbd8JzKdsGivitxrM2CIeRJQorrsujQa1wPPj1IT1on70bT/LlUk14Kqv6vklu9Ejqfa/JMfMBLhSUAJtgEeQV9BReJh4J+o30YhTXUnmn5wYBXJtaDq9yq55dvKFDRvu/hxQDGeBPSgH7gCfcW0iyHgm8CmcarBuvQbNP3hrVUk14Kq/6vklm8rL0dXD8kNGInyJKBLH0ZfIe1iDrpffDa5S9H0iU9VkVwLqnNAJbd8WzkT7fUvqQEjYZ4EdGgv0n/f/0Jgg1gVYD27AE2/+GYVybWgOg9Ucsu3lWvRXwf9OKAYTwIK6icspFNXwkSxAjgxWvZWllPQ9I+bq0iuBdX5oJJbvq2o1rmMjyR+NdaAJwEFvLeLwlYV9wP7xEvdSvQuNH1kJbBuBfmNpzonVHLLtxXVXhetwpOAYjwJmMTmwKMlJ1FW3ILf66+T/dH1lQMqyG88Va4queXbymL018Wx4UlAMZ4ETOA7FSTUTfwOr/Kvm83R9ZdTKshvPFWuKrnl28od6K+N48OTgGI8CRjnoAQSbRU/R3NL13qnupv0uyqSG0d1fqjklm8r16C/PrYKLwwsxpOAEX3A7xNIcnz8N+7IdaZaTLqKcAeiSqpzRCW3fFs5Hf01cqLwnYBiPAmgmo9ZdBr/TXgjwerri+j6zz9XkN9YqjxVcsu3lQPQXycnC08Cisl6EjCVdF5nGY1flZ2kSbwFXR+6oYL8xlLlqZJbvq1MAeajv15OFn4cUEy2k4APJpDQ2Phf/My/KXZF25f2iJ/i01Q5quSW70SOQ3/NbBe+E1BMdpOAtUlrBnsLsEmvSVky+tB9FngYOCt+ik9T5aiSW74TmQ7MRX/tbBeeBBST1STg/QkkMRr34/f8m+gSdH3qcarbLlqVo0pu+U6mLp9M9+OAYrKYBEwF7kkggWFgOWHjGGue96DtWx+LnyJUnNPYUMkt33bOR38dLRKeBBQzDd0HzTqNi+liwfzbEij4aFS9YtuqswPavjVINWtKVPmp5JZvOwPAD9BfS4uEJwHF1OlOQEebn/UBf02g0MOEr/pZs92Gto99On6KstxUcsu3iDoNGD/FawKKqMudgCHgyKJJvTaBAg8Dc/AnfXOg/m76EmDryDmqclPJLd+iPAlonrq06TxgRpGEUkhmFXBgkcJa7b0QfX/7duQcVXmp5JZvJ+oyYAzjSUBRdWnTY9slsiVh0Z26oP/erqDWKLej73NHRMxPlZNKbvl2qi4DxjCeBBRVh8cBg4T1KBP6lwQKuRC/75+bU9H3uweAjSLlp8pJJbd8u+FJQPPUoU33m6jwA4Tn7uoCvqttNVvTPIuwUEXd974XKT9VPiq55dutOgwYo+FJQDGpt+npExX81QkU7nr8kZ9cXYW+/w0DH4mQmyoXldzy7UXqA8bY8CSgmJQfB/x6okJ/TVywFcDzi9SuNVIqX52MsfGUKheV3PLtlScBzZNqm942UWEXigv2H4Wr1ppoGul8e+IhYPcSc1PloZJbvmVIdcBoFZ4EFJNimy5uVVD1u//L8F7/FjblUZ8go3Ev5e0PoMpBZVmbcsWIpyrJLK4UB4yJwpOAYlJs0zX8p7hA53VSo9ZYGxM25lGfIKPxF2CzEvJK5kSvyII25YoRg5VkFl+KA8ZE4UlAMam16WoGgEeEhVlB2BPeDOAc9CfI2LgF2KbHnJI40St0Q5tyxYjrKsmsGqkNGJOFJwHFpNSmq3mpuDDf7bwurcG2JtzOVZ8kY+NuYOceckriRK/QWW3KFSMmfL2pplIaMNqFJwHFpNKmq1Fv/vOSLiqzhTRlAAAgAElEQVTSmu0L6E+S8fEw8Iou80niRK/Q/m3KFSP2qSSzaqUyYBQJTwKKSaFNV3OtsCB/6KoKrek2AR5Df1EbHyuAD3SRTxIneoUGqPaNjkGau39Iyu+Uq2I5oX/dQLjbtD9ttrhNjHoS8LT10O79/56uq9Ca7mPoLzQTxffpbLtq+YkucALV5dn2Iyc150lA+5hP6HOFvniXgGkkcF14vbAQS4CZ3defNdwM4D70F5aJ4gHC67NFyE90gelUs7X4fdTnot8LTwKKxVxgVpd1XDX5deE0YSEu7KXmLAuz0F9Q2sWPaf8Wi/xEF5lF3G88DBH3K46pUd86rksMEca21B8Lya8LVwgLcWQvNWfZ+BH6C0q7WEpYTLveBDnIT3ShmF96PKXCPFLhOwHF4yLSngRIrwv9wOOiAiwmj9t21rvtCP1FfTEpEg8DnwLWH5eD9EQX6ydciMvO7ULSvrjH5DsBxeMzXdZxFaTXhT2FBbi015qzrHwI/YWkk3gM+CLw7JHyS0/0BPQBJ1PO44C63N6NzXcCiveXo7qs49ik14VjhAXw6n/rRB/wP+gvJt3EdcJjp+YowiKtbvOZQ17P/NvxnYBiMQ9Yu8s6jkl6XThXWIDte605y87WhFvs6otJnSJF04HjCe/uF81jEDhu5M/a6jwJKBYndFvBEUmvC5eLDn5Pz9VmuToS/YWkTpGyfmA/4ExgNmGQXzYSgyP/7gxgX3y7vx0/Dmgfg6S3WZD0unCn6ODf6rnaLGefR38xqUtYPnwnoH3s13XtxiGph37CjHH7ChJs5QbRca0ZjgOuVhfCLDErgKPxAuvJHKYuQAr6CV82myI6/u9Fx7VmWElYTHaPuiBmifEkYHJN/GBUx/qBXUTHHgJuFh3bmmMh8AbCdtJm9owVwBuBy9QFSVAvn/RujH7CimqFOwi7ppn16g+EW3rL1QUxS8xywgTZdwJWt4G6ACnoBzYTHfs20XGtma4E3o0XvJmN58cB1lI/sLno2H5ua2X7BnCSuhBmCfLjgNU9pi5ACvqBLUTHvld0XGu2Mwiby5jZ6vw44Bl3qguQgn5gU9Gx7xMd15rvLODj6kKYJciPA4LZ6gKkoB/YWHTsh0XHtTx8jrDlp9cEmK3OkwA/Cnna3Wh2IdqziuQse28l3PpU7zymDrPxct02eJD0tpSW1EU/sFYV2bXwqOi4lpdvAYfifQLMxst1TcCZhH1oDN1X1fweplVpb3r7/Gzdw2wiOX074D5gRjnVVirZdWGJ6MApNoI12ybAr9BfhCQnutkkcngcMAQcUVaFlUx2XVgpOnBqn2O0PEwBTkN/Mar8RDdro+l3Ak4pr6pKJ6kT5UKIPuGxzcxsdaObBV2iLkgEFwEnqwuRoqVoZh/rVpGc2RibAFeg/yWiCLOi+oATgVXo+22vMUS445faqv/xZNeFhaIDqzYgsjy9kLAASH1Bkp3oZh06knovnJ1Dus/8x5NdFx4UHXjbUqrNrL2/BxahvyApw6wb04FjCe/Oq/tw0RgEjhspe11I6qqP8FGeHeLnt4Y9gVsEx7W8vAP4d8Liv5x5zY31YgB4KWFPjf2AXYANCW8PKC0n7ClzF2F738uAG6jfe/6ySfrf0Mw+DqoiOcvaSYQLgfoXSQphZumSXBemENYAKGwlOq7l4QTC9wDMzKyFfmC+6Nhbi45rzXcCcLq6EGZmKesHFoiO7TsAFsPH8OBvZtaWcgKwi+i41lz/H3CquhBmZnWgfATwbNFxrZkOBr6OV7ubmRXST9gcRWE7YKbo2NYsLwS+h1/1MzMrrB+4U3TsPmAv0bGtOTYnfMBkHXVBzMzqpB+4m/BFQIW9Rce1ZphK+OW/jbogZmZ100/YSWmO6Pj7i45rzXAOcIC6EGZmdTT6zPQOYGfB8X3xtm7NAt6vLoSVYgDYFzgM2AfYibDN7FRloQpYQdiG9m6e2Yb2esJX9Mxq4/PotijdrYL8rFm2QfcVy7pGimYQtmtegL5+yor5hI2oZpRYT9Z80uvCW4UFeHevNWdZ6Qd+hf5C301cJzx2ao4G5qFvk1gxl3CXyqwI6XVhD2EBLu+15iwrH0F/ce8kHgHOJXz9EmE5UtEHnEweH2kaAk4jTFrNJiO9LvQRnmUpCvAU3g/AitkOWIz+wl4kHiYMdBuMy0F6oov1A99F3zZVx0V4EmCTk18XrhQW4uheas6ycTn6i3m7WAJ8Alh3ghzkJ7rQ59C3jyo+U0L9WXPJrwunCwtxYS81Z1k4Gv1FfLIYIvTjdnsSyE90kdTbr4r+cVTPtWhNJb8uvE5YiCcIr/2YtbI2aS8Ymwe8umAu8hNdYAZhUZy6ndQxj9CXzcaT9Mmxz6WuIbzXqjADeIvo2Ja+jwJbqwsxge8DzwP+R12QhH0Y2FZdiARsjfeusIRdg252/KcK8rP62RR4HP2vt/GxHHhfF/moyqsyQLPe8+81BkfqxGwsSX8cvzL1V7GyK+B5wIuEx7c0/QvpvSXyEPD3wPnqgtTAfoRJnAWbAy9TF8IM1nw1RTkBADhOfHxLyzakt1HUXcBLgKvVBamJw9QFSJDrxJI0hfD+sur22Epg1+hZWl2ci/6W7di4Gdiqx5xUZVf5TZty5Rize6pRayJJXxx/B2AlcGmkBIsYwHcBLNgU+D/qQoxxE3Ag8IC6IDWzk7oACVJ8eM1sDa12p7qk8lKs7hj8fXeDDwHrqAsx4h7gtYS7Y9aZ9dUFSND43SHNkjEV/ZfW/jN6lpayaYSvqqlv1Q4TFvztXmJuqjxU1O2XYjzVU41aE0n6Yqs7ACsI37VWOobwVoDlaRawmboQhHPhcOA2dUGsUR5TF8AMJv5AxUWVlmJN/cBZ4jKYznvUBRhxPF6wZeW7U10As8n0E557qm+VvT52opacPdH3u2HiTYJV+aio2zHFOL2nGrUmkvTFie4ADAFfLznBbnwFL5jJzVvVBQAeBP5ZXQhrLPUjVrO2tiG8FqieLZ8XO1FLyh3o+9zhEfNT5aSibsvUYpCJH72mYgA4ADgbuIGwIHf5SMwf+XdnAfvjbY3LkuR14cfCgo3GKsJ2otZ8L0Lf374ZOcckT/SI1O2ZWhzbW3VGNQM4ic6+3TAfOGHkz1r3krwuKD8RPDbuwu8T5+AstP1sCb3v9NdOkid6ROprR0pxH+kOlEfT2ye35xLe3rHuJHld6AP+Iizc2Li4SC1ard2Oto/9S/wU0zzRI1JfN1KJIeCIHusyhj7gZEL5ysjxNNJ/xJGiZK8LxwgLNz68MKu5dkTbtx6gmp0Hkz3RI1FfM1KJU3qtyAj6ge9Sfq4X4UlAp5K9Lkwj3LpSn0DDwJPAC4sU2mrnPWj71gnxU4SKc+roRI9Efc1IIS4kzQHxc8TL+TMV5tEESV8XPios4Ph4ANiuaMGtNr6Prk89TnVrTJI+0SNQXy+UkfIt8aOJn/tRlWVTf0lfF9ajs5WhseNPI2WyZuhD+/2JM+Kn+LSkT/QI1NcKVcwhzWf+EBYiziV+HcwD1q4op7pL/rrwIWEhW8VPgCmdJGDJ2hVdPxoCdouf4tOSP9FLpr5OVB2DhE+aTy+j8iL5GNXVR1WP1upsGjW4LkwjvI6nPsHGxvfwJKAJ3oquD1W913/yJ3rJ1NeImLGMMODPJtxF2pc0b/ePNUC1d3MH8WZBk5kG/JCaXBeOERZ0ovgv0j/pbHJfQtd/qv7wUC1O9BLllm/qDqT6tvBGbq2pB/+Oz5MB0tkXYGz8B+E5stXTDWj6zSqq/+xwLU70EuWWb+rOofq2OLOSzOolhcG/q/Pk1QkUulV8Z6RSrX4eQ9NnfldFcuPU5kQvSW75pu43VN8W/qT26lIZ/Ls+T2JsHlFGXIm3DK6bLdD1l09XkN94tTrRS5BbvqlTvM01WElm9ZDS4N/1ebI1sCiBwreKPwJbdpuYVe4AdH1l/wryG69WJ3oJcss3dcuovi2eqiSz9KU2+A93u3jufsL+0Sl6AfB7wopcS1+Vr+CNtYowWTTLieIx6VqCY6ZmGuHOecxPjXdqUS+r578I3FRWSUq2FfBr4IPqglhbql0dbwOWio5tZvlIcfAHeLCXCcBKwmuBy0sqTNmmAl8A/huvC0jZ5qLj/kF0XDPLxzTCfjWpDf7Q4wQAwh2Ak0soSExvBm4BDlEXxFpSrde4XXRcM8vD6C//w9QFmcBvyvhL+oGrSWBBQ5sYAi7A3xBIzW/R9Ie3VpFcC6r+r5Jbvqlze1QjuQV/LWKfspLdBViSQEJFYg7wxrISt57diaYfHFBFci2o+r1Kbvmmzu0R3zTgUnR1XSRK36L5bQkk1UlcDTy/zAqwrtyPpv13qSK5FlT9XSW3fFPn9oirDr/8h4GPxEj+Kwkk1kmsBM4HNoxRGVbIw2jaXrX2QNXXVXLLN3Vuj3jqMvjfS6RXM9dC90y3l3gQOChCfVh7qkdHqjdDVH1cJbd8U+f2iKMOt/2HCWvhjohUB0B4r/uhBBLtNFYC74hQHza5FWjae2oVybWg6t8queWbOrdH+eryy3+YirY/fyVhfwB1sp3GELrV4bnKbWtSVd9WyS3f1Lk9ylWXX/7DwMWEt/Yq8Q7CgKpOutNYBrw4Qn1Ya7l9nETVr1Vyyzd1bo/yTKU+v/wvR7Al86dLKLgibsX7V1fleqpv3+sqyaw1VZ9WyS3f1Lk9yuHBv4A+4L86KGhKcWz51WEtnEX1bXt6JZm1purPKrnlmzq3R+88+HdgGvBz9BXRaQyi+XJWbvan+rZVfilS1Z9Vcss3dW6P3njw78IM4Ar0FdJpvCFGZdhqBoD5VNemg1S4EKYFVV9WyS3f1Lk9uufBvwfrUI9vBoyN70SpCRvvBKpr0+Mqymkiqr6sklu+qXN7dMeDfwnWpl6TgPviVIONM53wjYYq2nNGRTlNRNWXVXLLN3Vuj8558C/RTOAa9BVVNFQ7xuVmFnFfG42+A1ZBqn6sklu+qXN7dMaDfwRrETYlUFdYkdg9Uh3Ymk4lXjueUmEek1H1Y5Xc8k2d26M4D/4RDQBfQ19x7eIFsSrA1tAPXET5bXgh2oV/Y6n6sUpu+abO7VGMB/8K9AGfRV+Bk8We0bK3VvoJdwLKeBwwBPwb6Qz+kN8FOLd8U+f2aM+Df8XeRdifXV2ZrcJrADSOAubSfbvNIY1n/uPldgHOLd/UuT0m58FfZB/gAfSVOjbuj5qxtTMdOJ7w7n7RNhskvOo3XVDeInK7AOeWb+rcHhPz4C+2NfBb9JU7GhfGTdcK6gf2A84EZhMG+WUjMTjy784g7PCX0u3+VnK7AOeWb+rcHq158E/EdOA29JU8jHcCtPLldgHOLd/UuT3W5ME/IdsBK9FX9Hz0m8ZY8+R2Ac4t39S5PVaX9eCf4u3S9xBeEVQ7F3hSXQgzM4tiKvA94HB1QQr4KXAk4bFnY02jswVfseJO0l1EZvWW2y+w3PJNndsjyPqXf6rejL6yh4G/j52oZSu3C3Bu+abO7RHuMP8A/ThTJC4lo8/S/wx9hX8jepaWs9wuwLnlmzq3B3wV/ThTJLIa/DcFVqCt8IeBzWInalnL7QKcW76py7093oR2jCkaWQ3+AO9HX+nvjJ6l5S63C3Bu+aYu5/aYTvgkuHqcaRfZPPMf63q0lf5X0nj7wJottwtwbvmmLuf2OB7tGFMkshz8tyTut+CLxOujZ2mW3wU4t3xTl2t7TAEWoB1j2kXlt/2nVHmwSbyO8GVAlf8Ffiw8vpmVq5dBZwXwKHA3YZvpywh3KFeVUC7T2I+wzixVPwXeCCxXF0RB/UrGa+KnaAbk9wtM/auqrJgPnED9dwfNrf+NOhN9H5oosrztP2otYBG6yr8V7d0Hy0tuF2D1xbXsmAvMKrWGqpVb/xt1Lfq+0yqyW+0/3oFoG+Dd8VM0e1puF2D1BTZGDAGnkeZW6u3k1v9G3Ym+34yPrH/5j/okugZ4GFg7fopmT8vtAqy+yMaMi6jfJCC3/jdqCfr+MjaSGPxT6Lz7C499IfCE8PhmVl9vBE5RF8IKSWESMiqLD/sUMYD2+f8+8VM0W01uv8DUv7RixxBwVGm1FV9u/W/UHej7yjCJ/PJPxfPRNcS9ePGfVS+3C7D6gltFzKM+jxJz63+jrkHfT5Jb8Kd+BPB84bEvIo2OaWb1tjVhK3NL1w3i4yf5nn/OE4DLhcc2s2b5KN5KPGXK672f+U/gKjS3YhYBU+OnZ7aG3G7Bqm+7Vhn7lVRnMeXW/0ZNIWzmVHXeyd32H0t9B+A5ouNeTdju08ysLIepC2ATWknYDbBKSd72H0s5AdhoJBR+JTqumTWX3ypK25cJnwOuQi1u+ysnADsJj/2/wmObWTPtrC6ATeop4LgKjnMZcASJD/6gnQDsKDruEPAX0bHNrLk2UBfA2voe8JWIf/9lwNEkfNt/rBzvANxO2BbSzMzy8wHg+xH+3h9Qo8EftBOArUTH/bPouGbWbI+pC2CFrCIszivzTsB51GzwB+0EYFPRce8SHdfMmu1OdQGssFXA+4A3EXZy7NZ9hIH//SN/Z63kOAGoahWomeVltroA1rHvArsSFgcu6ODPLSBs/rQbcHGEclViivDYm4iO6wmAmcVwmboA1pWngLOBzxNe5TwEeCmwBWGbZ4D7gUHClsI/Gfln7X7xj6f8GM69wPaC4+4N3Cg4rhnodkVTnesp7AJXhfmEdU1D6oK0kVv/s0koHwHMEB33UdFxzay5ziT9wd9sNcoJgOqbyE+KjmtmzTQPOF9dCLNOKScAqg8kPCE6rpk1zzDwQfzDwmooxwmAT1QzK8tngB+qC2HWDeXCjFVoJiBrUbPNGqxRcluE1eRFgBcBb6Fez/5z6382CeUdANUgvK7ouGbWDMPA6dRv8DdbjXICsEJ03PVExzWz+psLHAWchAd/qznlBED1qcSZouOaWX3NB44HdsfP/K0hlDsBLkGzG6AfAZjZZJYT9gu5i7C972WEnd/8i98aRTkBeBTYQXDc9QXHNLNqedGZWRvKRwCPiI67k+i4ZmZmychxArC76LhmZmbJUE4AHhQd1xMAMzPLnnICoPosrycAZmaWvRwnANuh+xKhmZlZEpQTgLmi4/YDzxcd28zMLAnKCcDtwmO/QnhsM7PcTFUXwNaknAAsBBaIjn2Q6LhmZjm6EthcXQhbnXICAHCL6Lj74nUAZmZV2Q/4PfAidUHsGeoJwF9Fx50OvFR0bDOzHG0DXAX8o7gcdTUFOBA4A7iW8Bh9yUjcDlxD+ErlAWh3+S3s7YRPayri9Pjpma1B1d9Vcss3dar2GB9nAAORc22KGYQPUT1E8fpdABxL4ne690LXAefhDmjVy21AzC3f1Knao1X8Atgobrq19ybCWNVtHd8HHF15qQvqBxah64CvjJ+i2WpyGxBzyzd1qvaYKO4Enh0143oaAL5KefV8Pon+4L0CXef7RgX5mY2V24CYW76pU7XHZLEYODJm0jUzDfgB5dfzJSQ4Cfgkuo63BFg3fopmT8ttQMwt39Q9ha5NJosh4BT0C9PVpgGXEq+ez68ulWL2Qdvx/il+imZPy21AzC3f1M1He71tFz8CZkbLPm2xB//RSGpNwFTCLSBVh7uNBG+LWGPlNiDmlm/qZqNrk6JxO7BnrApI1FTgh1RTv/cz8nZACrdbVgC/FB5/N2CW8PhmZlX5g7oABewKXA+8Tl2QikwDLgYOr+h4WwHvq+hYhbwD7Yzzr6QxGbLmy+0XcW75pu5gtNfaTmIV8HGgL0pNpKGq2/7jYz4JbRa0GbASbWd7ffQszXT9WyW3fFM3DRhEe63tNJq6LqDK2/6tYv/4KRZ3LdpO9icSmhFZY6n6t0pu+dbByWivtd3ETcBOEepCRfXLf2wktRvu/0XfyT4UPUvLnapvq+SWbx3MJP23AVrFw8CrItRH1VIY/IeBq2Mn2olNgeVoK2QRsHXsRC1rqr6tklu+dXEE+gGom1gJnBihPqqivu0/Nm6PnGvHfoq+Uv47epaWM1W/Vskt3zr5MvrrbbfxLRL/0E0LqfzyH43FcdPt3BvQV8owzbjNZGlS9WmV3PKtkwHge+ivt93G74FtS6+VOFIb/IdJcAIwFXgAfcU8CGwROVfLk6pPq+SWb90MELaHVV9zu435JLaavYUUB/9hEnwEAPA59BUzDPwM7w1g5VP1Z5Xc8q2rf0a/BqvbWE5iG9uMkergP0xiiwBH7YB+T4DR+FjcVC1Dqr6sklu+dbYv4e6n+rrbbaS2LiClBX+t4rPxUu/Nd9FXzjBhm+L9IudqeVH1ZZXc8q27rYHfor/2dhu/B7YrvVY6l/rgP0yY8CXphegrZzQeAnaPm65lRNWPVXLLtwlmEH5Nq6+93cb9wEtKr5XiUr7tPxqDJP4RvKvRV9Jo3A1sGTddy4SqD6vklm+TvJv6rgt4Cs2n3uvwy38Y+EisCijLq9BX0tj4C7Bh1IwtB6r+q5Jbvk1zAPXcNXA0LiAMylWoy+A/j7TWSkwopbsAwyPlqUXFWbJUfVclt3ybaCfCXvzq62+3cRVhp9mY6nDbfzTeEKkOSrcf+soaHzcAG8dM2hpN1W9Vcsu3qdah3psGzQFeUHqtBHUa/L8cqQ6iSWF74PFxE14TYN1R9VmV3PJtsj7g48Aq9NfgbuIJ4B9LrpM6Df4/IPGFf63sQZoLUe7BbwdY51T9VSW3fHPwGuBR9NfgbuMCyvn0e12e+Q8DlwNrjU+gr4RKqMKXCZ8LTs0CwvOUa9QFSdQewN7ANiOxnLCgaD6hzu6VlUxHNTipzvXc8s3FLoRfvnupC9KlqwnX7oe6/PNTCY9EDi+tRPH8FDgSWKYuSLc2JjSUehbVKlYAn8DbBo/aATgVuIX2dXcbYevnzRQFFVH1U5Xc8s3JeoTbyuprcLdxJ/CcLvKu/S//Ono7+sqcLH5BXgPZeOsT7tR087hmCXAWMLPyUldP1T9Vcss3N33AidR3XcBiYFYH+XrwF+kDfo2+UieL+4FXx6qAhB1OyL3X+rsVeHbFZa+aqm+q5JZvrg4BHkN/De4mhoDTaH8X14O/2O6ElZzqym0XFwFbRaqDlGwJXEK5dbcEOKzKJCqm6pMqueWbs90p9ugv1fgpsMEEuXnwT8SH0VdwkXicsN1iGatNUzMN+CDxVgIvA/6+smyqpeqPKrnlm7uZwI/QX3+7jduBPcfl5ME/If3AlegrumjcRLhF3oRVyX3AmwiLZ2LX20Jg+2rSqpSqH6rklq+Fd81PI9xaV19/u4lFPLO634N/grYHHkFf4Z3EX4A3U8ONGAhlPorwqc0q6+wXVSRXMVX/U8ktX3vGm4Gl6K+93cQq4JPUZ5OfSwl3ZrNxOPWcYd4OvAtYt/wqKd16hFv9d6Grr0OiZ1ktVT2q5Javre55hK+pqq+7TY5sfvmPdy76yu82lhC+uf1q0ror0A8cBPz/hHUM6nq6Lm66lVPVo0pu+dqaNgZ+hf5a0sTIdvCHcMtjNvpG6DXuJ7wH/yo0XxucDrxypAz3FShvlTFE2EWwKVT1qJJbvtbaFMK6APX1pEmR9eA/agtgLvrGKCueIux38ClgX2Dt8qrqaesDLweOA35O+s/p3h+hDlRUdaiSW742ubdQj1e5U49SBv8mrEyHsN/8tcQZLNWGCROc2wlb595KeKa2iPAYYTFhA44lhIUrMwm/6GcAGxJ+PW8PbEvYpvcFhO9716ntLwWOUBeiJKrByd8CsFTsTVhZv526IDVV2t7+TTpJZgHfxXvyN9GNhItGE+Q2IOaWb5mmAa8A9h+JbQl379YGBgk/Cm4l7Md/DeFxWV1sClwMHKguSM3U/sM+Mb0X/a0ZR/nR7Re7UqSqQ5Xc8i3DTMLjuU7W49wHfJowQaiLacC/o7++1CX8zL8ALzRpXjxBc6jqUCW3fHt1MOFz2d3mvQA4uvJS9+bdhF+06utMyuHBv6A+4Dz0DeYoL+bQHKo6VMkt325NBT5PeXubfB1Yp9IMerMv8CD6a02K4cG/Q33AV9E3nKOc+APNoapDldzy7cZUwnP8suvgZtbc1z5lWwO/RX+9SSk8+HepH/gv9A3o6D2+QXOo6lAlt3y7cT7x6uEJwi32ulgL+E/015wUwoN/j/qo926BjhBvHt+wNaaqQ5Xc8u3Um6imPr5JvR4JvBtYjv7aowoP/iX6LPoGdXQXK4FN1mzS2lLVo0pu+XZiA8IbLlXVSd0eCRxAbwsi6xoe/CP4EGEwUTeuo7P4ZqvGrDFVParklm8nTqH6elkCvL2C3MqyLdV/hVQZHvwjeg1hBz11IzuKxUpg95YtWV+qulTJLd+i+tF+d6NOjwSmEz6cpr4exQ4P/hV4ITAPfWM72sd5E7RhnanqUiW3fIs6CP35dQvwnNiJlqQPOJHm3sX14F+hTfDnKVOPG9F8GTE2VX2q5JZvUV9Af44NU79HAq8BHkVfb2WGB3+BKYQ3BMraeMNRXswnfMCoiVR1qpJbvkX9Ev15Njbq9EhgF+Cv6OusjPDgL/Z64GH0HcER4j7gWZO2WL2p6lUlt3yLmoP+XBsfdXoksB5xNk+qMjz4J2Jr4NfoO0TucQWweZu2qjtV3arklm9RT6I/31pFnR4JjK4LWIW+3joND/6J6SNsPrEYfefILZYSTuQcPuWsqmOV3PItaiH6826yqNMjgUOAx9DXWdHw4J+wHQm/RNWdJJe4mvBMLwdroanjlVUkNwFVv0pdio8AxkedHgnsTiivus7ahQf/Gugj3AbLcReqquIB4K0jdZ2LTdDU9dIqkpuAqn+l7mr052CRqNMjgZnAj9DX2UThwb9mNgC+BKxA33maEsuAMwmLeHKzI5o6f6SK5Cag6mepOxX9udhJ1OWRwABwGum93eXBv8aeBVyKvhPVOYYIq3b36LDum+S5aOr+wSqSm4Cqv6XuH5dhflEAAAw6SURBVNCfk51Gnb4l8EbCnS91nQ3jwb8x9qU+t+5Sil8AL+qivpvmADT1f2sVyU1A1edSN5V6rAMYH3X6vPDzgLvR1pcH/wY6gPQ28kgthoCfj9SVBW9H0xazK8htIqr+VwfHoj9Pu426PBLYGN2urx78G+4lwEXk/d3q8bGc8OGO5/VQr031OTRt8qMqkpuAqh/WwXrAIPpzttuoyyOBKYR1AVXWjQf/jGwNfJZ6n8y9xjzC50237bEum0y1c9l/VpHcBFT9sS7+gfQWrHUSdXok8BZCeWPXiQf/TE0FDif84srhzYHlI7keSlh9a5O7GU07nVxBbhNR9c06OQf9udxrfJ16PBLYm7hrLzz4GxC2tH0fcCXN+oTlSsL6h3cRnq9ZMeuhe1R0TAX5TUTVT+tkALgQ/bnda9Rl46AtCetiys7/YmBahXlYTWwO/BOhg9TxU5YLCWsd3g5sVm7VZONgdO2nXIipyrluBkjnE8G9RF0eCawFfIVych4C/o08tjK3Hk0B9gM+CfwUeBz9STs+HiXcyvok8DJ8e78MZ6Frz60ryG8iqpzr6m2E3ffU14Beoy5vCbwGmEv3ec4Bjqi81NYYA4TbZm8DziV8lVC1fmAOsBeeycbwRzRturCK5CahGoDqbA/gz+jqrqyoyyOB9YGTgHspntsDI39mevXFtaa7Ds0JOwRsU0F+udkS3SdLr4qf3qRUg0/dzQAuQFd/ZUVdHglA+DH2WsI2zVcSfhA9Qrgjcw/wP4QFmwfgH0kW0RfRnbAfqiC/3Cg3fPlCBflNRpV3U/iRgFlm3oHuRL22gvxycyO69jymgvwmo8q7SfxIwCwje6I7SYcIHz+ycqg+ADQau8RPcVKqvJvGjwTMMtEHLEB3kn45forZOBddOyq/AjhKlXtTNeWRwAWEN6LMrIXvozs5FwEz46fYeBsDi9G148XxU2xLlXuT7YVuV8ky4/v4FWMpr2RM16+Fx14PeK/w+E3xYWBd4fF/KTy2xXMz8GLgG+qC9OhIfLfRrKWt0X4k5BFgw+hZNtdM9Ls+bh89y/ZUuX+C8Ny86d4OLEX/a76XOLrsSjFrgt+hPTFPiZ9iY52Mtu1ujp5hMco6mEv4Alxf9Cy16v5I4CHCZjxmNsbH0Z6Yi4CtomfZPDtRzWdHJ4vTo2dZjHpwGQZ+C+wbO1GxdYD/Ql/X3canS68Rs5pTvg44GpdEz7J5foy+3V4QPcti1PUwNn4M7Bw3Xbm6viWwgPA5dTMb41b0J+dh0bNsjsPRt9ed0bMsTl0X4+Mpwt2RJt9yrusjgUNiVIZZnX0W/Yk5Fy8ILGIT4D707fWZ2Il2QF0XE8XDhG2vm/oueh03DjonSk2Y1djO6D4kMzZ+QvMXU/WiD7gMfTsNAbtGzrUT6vpoFzcTPgnbVG+nPm8JzI5TBWb19jP0J+cw/lDQZE5C3z7DhK+YpURdH0Xj54Rb502zF/C/6Ou3SMyLVAdmtXYo+pNzGFhG+BSmre5AYAX69hkG/jFyrp1S10cnsQL4CrBZlJqo1maEXFLpl0XiySg1YVZzA4TvUatP0GHCBkH+WNAznk2oE3W7DAODwPS46XbsSfT10mksIezjkFpdFjGNcKfuMfT12Gk8EaE+zBohlVvMw4TJyBZx062F7Qm3LdXtMRqfiJtuVx5EXy/dxlzCa3V1WftyKHAX+nrrNu4vv0rMmmFT0vo1dTN5TwI2IXzfXN0Oo7EE2Chqxt25Dn3d9BqzgZeUXTElegmhjOp66jWuK7tizJrkbPQn6di4DdgmasZp2p60Bv9h4PNRM+7e59HXTRkxBHwH2K7c6unJdoQyKb8ZUmacXW71mDXLpoTtedUn6ti4C9gtZtKJeTZp3fYfJrzmtWXMpHvwGvT1U2Y8AZxK+GKmynqEvR7U202XHQeXWUlmTXQK+hN1fDwCvCpm0ok4kHQW/I2NM2Mm3aOphG1e1XVUdjwIvItqv2c/MHLMOq+rmKw+m7opk1lp1gcWoj9hx8cK4P0R81bqA04kzVeqFhHuDKXsk+jrKVbcBLyyvKqa0CuBPwnyqyr+tbyqMmu2E9GfsBPFz2jW4sBNgMvR1+tEcWK81EszE5iPvq5ixo+BPcqqsDH2II2PS8WMBYQ+YmYFrE14RUl94k4UDwKvjZZ9dQ4jjb39J4q7gLWiZV+uw9DXV+xYQdh/v4yNhDYCTiNsvqXOK3YcXUJ9mWXlEPQnbru4hLRWTRe1E/X41XV4rAqI5Mvo66yKeAT4KGFTnk5NG/mzKa41iRHndVFHZgZchP4EbhdLgU+hXTVd1PqEHeDqsLr6R3GqIKoB4GL0dVdV3AEc0UH9HDHyZ9TlriouptpFlGaNsjn1+aXwOOGWZoqfFd6YMPDXpS4XAdvGqIgKDABfRF+HVcZVwN9NUid/N/L/UZezyvgCHvzNevZO9CdzJ/EY4eR/TozK6NBzgHOBxejrpZNowtsWh5DefgoxYwj4HmETqVFbEdYMrEygfFXFIHAUZlaKPuAK9Cd2N3ED8M9Uu5vgloRnrHV9peqXQH/ptaKxAWH3txwWuo3G6IeGTh75z+ryVBXLRtp6A8ysVNtQ781WhoA/EDY5ehXhWXxZ1gNeR7j4/BFYlUC+3cZDhF+NTbMd8E2as6WtY/X4MbALlpy6fOXK2ns14R38Jvw6HCJ8Z+CPwJ3AvSNxP+GDSEsJt+37gXUJvyrWG4ldCVsT70Z4h3o3mrHD2DBhkdhl6oJE9FLgHOBl6oJYKf5IuNt2tbogZjk4Gf1s3xEnUt7ut0x9wBsIEz51nTu6i/uBd+NFfmaV6ifcBVBfABzlxpU04y5GJ9Ym7HKY2sevHBPHUsKbPnV45deskTYh7V0CHZ3FXMrZWa6uclwpX7do9YaDmYk8h/q80+6YOBYBz8MA9gZ+jb5NHKvHDXjNhllyDiQsmFNfIBzdxXLCwk5b3auAm9G3T+5xB2Gthpkl6kh867SOMQS8fc3mtBFTCYvM6vzqa13jEcLajLp8hMosa+9Gf9FwdBbHtmxJG2/0i3lPoW+zpkeZXzo0swp9Av0FxFEsPjFBG9rEdiMsQlO3XVPjl8CzC7eGmSXng3intdTjtAlbz4p4BXAj+nZsSvwNOLijFjCzZL2NcCtPfWFxrB5DwEcmaTcrrp/Qzx9A3651jYeAD+GNfMwa5yj8zDSlWA68Y9IWs26sQ1isVrcvPSrjCcJdqJld1LeZ1cRBwOPoLzi5x2J8izW2rQmL1+r8EajYMbqRz45d1rGZ1cwLgLvRX3xyjbnAc9u2kpXlhcA16Ns9tfgtsG8P9WpmNTUT+CH6i1BucTWwRYH2sfIdSvjCpLoPqGMuYa2EvwhrlrE+wrNS3yKtJi4gbGRjOlMJi9weQ98fqo7FhK+GTu+1Es2sOQ4GFqK/QDU1HgIOK9waVoWNgS+Qx5sxq4BvApuXUnNm1jjb4c8Jx4hfEr5qZ2nanWZvJPRLvN7EzAp6G74bUEYsAt6Pn7PWxauAm9D3m7LiFuCQUmvIzLKwGeGWofoiVte4nHBHxepldCOhQfR9qNt4mLDGYUrJdWNmmTkCuBf9Ra0ucSdweDcVbUlZh7BYrk6f1F5GWNOwfvnVYWa5Wgv4MGEhm/oil2osAk7Cn0ltmm0Jd8JS/47Gj4GdItWBmdnT26t6F8Fn4inCq31+r7/ZXgxch76/jY/fAftHzNvMbDWbEW41LkF/AVTFEuDzeODPSR/wBtLYQfM+4N2ENQtmZpWbSbgI/Q39BbGqmE94Nrxx79VnNTWNsMhOcSdsCaH/zYidpJlZEf2E141+QfrPSruJIeBK4B/xM357xiaEO2Erid8HRzfy8R0nM0vW7sC/An9GP3D3GncAnwF2KbWGrGmeRXjtM1Y/vAJ4fmXZmJmVYDfgY8Dv0Q/mReNm4HTg7yLUhzXbq4C/UF5fvI2w5sDMrNZ2JKwX+Abhl7V6oB+NB4GLR8rmjXusV1MIfWk+3ffJhYS3baZVXHYzs0psTthk6GzC61WPEn+wfwS4CvgScAy+tW/xrA98nM4mAoMjf8Yb+VglvEe5pWQLwvPUHQi/xrcDtgQ2HBNTCQvx1h75M4sJi7BWEgb4hSPxMOGb5/eMxF3A/dWkYfa0KcArCF/b3Jsw6dxw5H97lHA37EbCGoJfE/qxWSX+H6626JeAHUwIAAAAAElFTkSuQmCC;" parent="1" vertex="1">
                    <mxGeometry x="650" y="288.5" width="33" height="33" as="geometry"/>
                </mxCell>
                <mxCell id="7VhcuU38_8ilDAtrPy3k-74" value="" style="endArrow=classic;html=1;rounded=0;" parent="1" edge="1">
                    <mxGeometry width="50" height="50" relative="1" as="geometry">
                        <mxPoint x="666.0799999999999" y="370" as="sourcePoint"/>
                        <mxPoint x="666.0799999999999" y="330" as="targetPoint"/>
                    </mxGeometry>
                </mxCell>
                <mxCell id="7VhcuU38_8ilDAtrPy3k-78" value="" style="endArrow=classic;html=1;rounded=1;edgeStyle=orthogonalEdgeStyle;curved=0;strokeColor=default;" parent="1" edge="1">
                    <mxGeometry width="50" height="50" relative="1" as="geometry">
                        <mxPoint x="670" y="280" as="sourcePoint"/>
                        <mxPoint x="620" y="250" as="targetPoint"/>
                        <Array as="points">
                            <mxPoint x="670" y="250"/>
                        </Array>
                    </mxGeometry>
                </mxCell>
                <mxCell id="7VhcuU38_8ilDAtrPy3k-80" value="Prompt + context" style="text;html=1;align=center;verticalAlign=middle;whiteSpace=wrap;rounded=0;fontColor=#4060A9;fontSize=12;fontStyle=1" parent="1" vertex="1">
                    <mxGeometry x="683" y="336" width="107.62" height="30" as="geometry"/>
                </mxCell>
                <mxCell id="7VhcuU38_8ilDAtrPy3k-82" value="LLM (generative model)" style="text;html=1;align=center;verticalAlign=middle;whiteSpace=wrap;rounded=0;fontColor=#4060A9;fontSize=12;fontStyle=1" parent="1" vertex="1">
                    <mxGeometry x="690" y="288.5" width="130" height="30" as="geometry"/>
                </mxCell>
                <mxCell id="7VhcuU38_8ilDAtrPy3k-83" value="Answer" style="text;html=1;align=center;verticalAlign=middle;whiteSpace=wrap;rounded=0;fontColor=#4060A9;fontSize=12;fontStyle=1" parent="1" vertex="1">
                    <mxGeometry x="665" y="250" width="90" height="30" as="geometry"/>
                </mxCell>
                <mxCell id="7VhcuU38_8ilDAtrPy3k-92" value="" style="shape=image;verticalLabelPosition=bottom;labelBackgroundColor=default;verticalAlign=top;aspect=fixed;imageAspect=0;image=data:image/png,iVBORw0KGgoAAAANSUhEUgAAAgAAAAIACAMAAADDpiTIAAAAA3NCSVQICAjb4U/gAAAACXBIWXMAAHYcAAB2HAGnwnjqAAAAGXRFWHRTb2Z0d2FyZQB3d3cuaW5rc2NhcGUub3Jnm+48GgAAAwBQTFRF////AAAAAAAAAAAAAAAAAAAAAAAAAAAAAAAAAAAAAAAAAAAAAAAAAAAAAAAAAAAAAAAAAAAAAAAAAAAAAAAAAAAAAAAAAAAAAAAAAAAAAAAAAAAAAAAAAAAAAAAAAAAAAAAAAAAAAAAAAAAAAAAAAAAAAAAAAAAAAAAAAAAAAAAAAAAAAAAAAAAAAAAAAAAAAAAAAAAAAAAAAAAAAAAAAAAAAAAAAAAAAAAAAAAAAAAAAAAAAAAAAAAAAAAAAAAAAAAAAAAAAAAAAAAAAAAAAAAAAAAAAAAAAAAAAAAAAAAAAAAAAAAAAAAAAAAAAAAAAAAAAAAAAAAAAAAAAAAAAAAAAAAAAAAAAAAAAAAAAAAAAAAAAAAAAAAAAAAAAAAAAAAAAAAAAAAAAAAAAAAAAAAAAAAAAAAAAAAAAAAAAAAAAAAAAAAAAAAAAAAAAAAAAAAAAAAAAAAAAAAAAAAAAAAAAAAAAAAAAAAAAAAAAAAAAAAAAAAAAAAAAAAAAAAAAAAAAAAAAAAAAAAAAAAAAAAAAAAAAAAAAAAAAAAAAAAAAAAAAAAAAAAAAAAAAAAAAAAAAAAAAAAAAAAAAAAAAAAAAAAAAAAAAAAAAAAAAAAAAAAAAAAAAAAAAAAAAAAAAAAAAAAAAAAAAAAAAAAAAAAAAAAAAAAAAAAAAAAAAAAAAAAAAAAAAAAAAAAAAAAAAAAAAAAAAAAAAAAAAAAAAAAAAAAAAAAAAAAAAAAAAAAAAAAAAAAAAAAAAAAAAAAAAAAAAAAAAAAAAAAAAAAAAAAAAAAAAAAAAAAAAAAAAAAAAAAAAAAAAAAAAAAAAAAAAAAAAAAAAAAAAAAAAAAAAAAAAAAAAAAAAAAAAAAAAAAAAAAAAAAAAAAAAAAAAAAAAAAAAAAAAAAAAAAAAAAAAAAAAAAAAAAAAAAAAAAAAAAAAAAAAAAAAAAAAAAAAAAAAAAAAAAAAAAAAAAAAAAAAAAAAAAAAAAAAAAAAAAAAAAAAAAAAAAAAAAAAAAAAAAACyO34QAAAP90Uk5TAAECAwQFBgcICQoLDA0ODxAREhMUFRYXGBkaGxwdHh8gISIjJCUmJygpKissLS4vMDEyMzQ1Njc4OTo7PD0+P0BBQkNERUZHSElKS0xNTk9QUVJTVFVWV1hZWltcXV5fYGFiY2RlZmdoaWprbG1ub3BxcnN0dXZ3eHl6e3x9fn+AgYKDhIWGh4iJiouMjY6PkJGSk5SVlpeYmZqbnJ2en6ChoqOkpaanqKmqq6ytrq+wsbKztLW2t7i5uru8vb6/wMHCw8TFxsfIycrLzM3Oz9DR0tPU1dbX2Nna29zd3t/g4eLj5OXm5+jp6uvs7e7v8PHy8/T19vf4+fr7/P3+6wjZNQAAFgZJREFUeNrtnQd4VFXax+8kpJFCAoSSiNkAklADBEIHWeklhC7g+omwfIqiKI+ALlUsyCN8IksVBQQFKTEBIYQOS5MQ2uIaIDQVCJ00IHW+7Loq3HMmZeacW+b9//I87nLmzsy55/+be8995869igIAAAAAAAAAAAAAAAAAAAAAAAAAAAAAAAAATI/F6B0sXyc8PKyaj6+Pr7ti/ePPqnD/iDcXZGZkZty77jwCNImJaWjBp7SMZJ89e/Zf22+bXQDXdjExIUjTXgr+ERd32bwCeHXp26sSUnSQE3FxJ00pQPmx4ysgPiFcivvsX2YTwHXEtOpITty+YPnUK6YSoO+HYUhNKA/mzkw3jQDtZrVEYsK58/78HFMIUOuTXkhLCpcnfWU1vgCd1gYgKlkkD7jEa3YxUBdfTUD+8ohMamdsAdwWzSuHmCRSeecI3jGXUbpXadMAZCT5+Draf4fVqHOAehtrISH5JA5ON6YA3df4IR0tSOmdakQBWu92RzbacLdrkvEEeDKpCpLRimvNrxhNgPIHGhf3cO7RX65cLSKjqLO//1kU7h/xZrdqQVVLPK472v6BsZS0rLfa5u7XgzE7KNNUP6hZ9KQka3GsNliXp9lOf14nN0RqD0+8uiPPtgF/M1RfBxba6ObDjysiSfsJGPWTLQEKYwzUzybZ/E4WrHgSITqG51t3bBiQ2cgwnSx/md/FrQ0RoICtwKwH/OG9GGiULk7mb6MmIzwx1NjCN+BLg/SvSgavd9n4WkAYLrP5e9gIY3Tv77zO/RKJ3AQyPIc3yImG6NtTuZyuJQUhNKG0vcEzoLMRuraO07Ez/ohMMCGpnHE+ZoAicEte8acOAhNO3XuckX5O/37tY3uV3wVxSaBbPjvUlzz07lU0R8uxCEsKb3DGepzendrG9ulzRCWJpexg3/HWt0sV2EOANB8kJQk3zjeE/fTt0hC2R6MRlDTascO9Qt8erWE6dBbnhUsknhnvW7qeE+6eznSoP1KSeSzIHgl00LM/XZnuHEJIUlnCjPgcPbuzgOlOR2QklSDm1IvzOvbG8ou6N1dwOSjJLGI+cw31+21gs2B1y0YrIpJLHNPSR7/OTGFsRBFY+rybOfsiSb/OrFX35R5OANZ+0AvL67YLYC4EtCUPAUkvBTAzsTC9BHCpU/IOCohmS766JVwvAUI81S0nkY907n5vGAFqMy1XkY98LhtGAOZKoFmZiEc+zKfsCb0E8MUGQA+Ya4b66CWADwQwxBbAF1sA2gLotgVgzkZKQzqkBGBORUAZSAvuqBu8XDAotIEAEABAAAABAAQAEABAAAABAAQAEABAAAABAAQAEABAAAABAAQAEABAAAABAAQAEABAAAABAAQAEABAAAABAAQAEABAAAABAAQAEABAAAABAAQAEABAAAABgHHAzVpLiaVMfzlZ+c4oQOWa/n5+fr6uj6ypasWL++dj/4hUv3a/cMViUQT+CX2xsg9sTmZWWkoRqQVGF7t0RHSvWycsABuCMnP7u/ht2Ybpjf9dewRwbRMTE4oo7ebhjvhN100rgGfnmOjKCNFBCg/Hx6aaUYBnRnf1RnxiHFg1+SezCRDxUVcEJ3BXMO+De4YToJg6QMjK48hfJJ5vnX/Tw2idsilAxdlnnsP93AVTcXbKMIMNqo3ueL0+sQLyksLx/9Xxlt2lnQM0jgtBUtKmAiO/MvocoP8B5C9xKrDqQwN9A8PpimXquvKISSYT43wNPAcov2IAIpLN6eiLRt0F1NiP/OXTIKmDQXcBrZKaIB4NqLR9pCEF6LG7KsLRBLclMQacA9Q75Ido7MRqVf74K03BL7v1KaPVASoeqVXCC+Rdu3o1LffxleX82fdgWZY2WqMKj+pBQUHBT3SsXtxgXo66ob8Aj1Jup7UYsjY8HxGI4nDZtq8tPvihmCHd7665AEwfHn10vu2u3vi8tyfytIva41JtDusyQwnwss1+HumCk4cdme+NuWFrZMcZSICOeTY6mToYG34H8Z2RzR/bgh6GESD0lo2N/xg3BOg41b/gD++9QKMIsMnGXgrHhYJ4MYc7wJ8aRIAO3N7lv4nghNHmOm+Ic2sbQgDL99ztUzfEJpAnj/MGea0hBBjE69qZMIQmFO9Y3jBHGUAAN96hapI/IhN9QLiPM857DSDAGE6/rgYjMOEEXuKMdG/dBfC7yfbqQRTikkCjLHaof3DVW4D3OVoOQ1hS6FvIjvUInQUI4JSpZiIqSUxhB/ugzgI8x5mYoPgvbSJ4ji0IV9VXgHVMa2EzBCWNgeznbaSuAnhkMq1rEJNEjjDjvUlXAbqz5cmaSEkiT7OHXN66CVC0r+/DLLbwAlKSyJ4EdYunnj/DtlxVS5GOK4LIJZL5HK7QcRfQgmmbj4gkc1495Ldc9RLAhbMH+BYJSSZO3VCprV5d4Qhwby8Skgz7EeuimwB+9dRNm/OQkGQOMj8IqKebAOHYA2hPIXPgH2YcAR5uRUDSiVc31C5nGAEOZyMf6fyobnCraRgBfkI88rnKtOgmQLWS+waEcz9d3aLX6fcuvhDAEJsAH70E8IEAhhDAFwJgC4BdAB2Y+wfodVF2F+ZiJulIRwOYG8nodQ4ezv0jDgSAAAACAAgAIACAAAACAAgAIACAAAACAAgAIACAAAACAAgAIACAAAACAAgAIACAAAACAAgAIACAAAACAAgAIACAAAACAAgAjI/4C1RaGjdtGu6q6UpknEj+Pg1ZGkOAkGUdtV+L3kru9I8KkKYBdgFDT3XUZT3c3z8YijT1F6DFl3pd8VKJWlcOceotgNeXrvqtSuQ7iFNvAcbX0XNdJtVAnjoL0F7XdXFrjTx1FqCJvivTHHnqK0BIgL4r0xR56ivAHau+K3MTeeorQOZZfVcmCXnqPAc4BgFoC7BU133A6UPIU2cBdul52+H84bnIU2cBlAkp+q3KB0cRp+4C3G/xhU4rcmfYVKSpvwBKxoie2+9qvhbWc0vrf40w7UH8N2hbtii16mr7xVzGsXtI0jACFHH+PAaW6i4AQAAAAQAEABAAQAAAAQAEABAAQAAAAQAEABAAQAAAAQAEABAAQAAAAQAEABAAQAAAAQAEABAAQAAAAQAEABAAQAAAAQAEAOKRcIEI94Za3zJGY+4eT74CAWzh9eFoN+f/3KSO2m3Kfluk7wKaHXudQP5K7Z2fepmx34HqhvuCtwAhu3xp7DotY3yHm7DbQeqGLLFbAMsXRPIv4oWeziBAplgBRv6Z0Px5iQl3AsGStwC9KR1ABTXBFkBNJKlD6EgnEOCyUAGqBUEAgx+9qBtShApA7Oat5lvdYGavdUaoADd/JiVAsul6HG2RuwUw4ZDQWtsYZiN2TqwAsZTyv3jCbD2uwNzY+/BDsQKs3Ewnf+uIHLN1uQdTpY8T/V3AX++QEWCh+b4O6se0xIsW4FpbIjfuyZ8x1nR9bsAI8OM54d8G/thqejqBzX9yqyl5puv1TBd2AyD+fID8adNrOv0JIcczTdjtDj0VLQQo+njgjjGGZBbTkvY9zgmkw6AopmmjFQKQwX+mwtsDQAAiuH4Tyh6y7YQAZJjdhW2blgMBqDDidbYt5XMFAhCh7QJO48QCCECEZrHubOP+eAUC0ODZfYGc1rcUCEACy3ureacvbzj86/+Wwwg5Nz6r+vCa899WsAWgQKtD3PyVxecgAAHqbDjYgPvA6d82ABDAiam68Id+/EduRf/+dSbmAM5KwyGvedt4KK//RQUCODPl2vWJDrX98Oh9CgRwUvyCimjYo2Jxy8xdqkAA0/NUu+aRfswnv5p3yc9MHKdAALPj9d5Ye6fvZwYXQADTT/DW17H3qRd7PX7SLg4DTYjnWrvz3xuVqkAAs/NuuL3PXNz5lgIBzE7oODufmD/mJebXDJgDmI/Wdn5q7w7cySkZYDxNR3P7nvZjdCqnFbsA82HfpWnWtuTlDwFMiD3XYjzQZnCGAgGocqZv24M2HoIAzk/ayw3ibD6ISaCzk/Xxx9nFPAwBnJrCQ3Errxe7BARwXh7siPvuRkkLQQAn5fZ38Yn3S7GcDAHcG9Z1aq/uHL1q5O4VXEg5k/JDUimvYyo+qSFvNPJw9o/XtV0TjHTXoAlHfss+OyszK8talueKFiBwYX8C29fqw3qOXWGc7pzaY/9zBQvglxRCYxfrvzzkXadYEcGFoE+I5F/EpMYQgKHncDL5K27LXSGAmucpHWhFNIIAamjdMqYpBFBRoSYpASIhgPoYwEJKgAoQQMXPt0kJcBwCqDlGSoBjEEDNLkr5ZyRDADVzThES4M10CKAm9/lcMvknfK5AAIaTA24SyX+jkxS9RJ8UuqlBPIX401/oc8s51kT4+QA3YkKbOv0tY5JPZIt+0Sp6rY1Vjb8C5DOTGfcXS/3cE+qndjPQLgDYy5Jop5gDAHtxXdMWApDGa1MDCEAa/8QQCECaoMTKEIA0YVu8IQBpmse6QQDSdFlugQCkGToHAtBm7EQIQJsPX4QAtFnSGwKQxvWbNhCANFoWhSGAEQnYGgIBSBOsWVEYAhiTsM3eEIA0URvcIABpui6zQADSDJsDAWgzdgIEoM3M4RCANhoUhSGAkSknvygMAQzC8gu8Vq9N9WULwFxX1BVhaABzeZnLXbiXdQ9IfFKyAMyP3KoiHQ0IUjdkne+eyVswOLGSXAGySuwa0EKATOV4TA5vyXC5RWGXTAhgjC2Aoux6rpC3aIv1btgCOBuuVTkCKOvHcBfuJrMo7JIBAXSgCjPVTvv3fxbwr0A+bLZEAS5CAB1gp/Yp//nv1MXcxd8YL0+AFHVLXcQjn07MBuC/lxwbvYG7/EcvaCdAvdrIRzox/A2AohQO28N9wme9NBOA7RwQTY1mtgRQcvqc4D2j3NrWkgQ4nwMBNKcP03L49/+X0Z1fFP5OVlE4QX3JoQLUAmWzQz3m+Y+W+2pft/L4+beZo+CLRDHX9XOJRkJyCeigbjnw6HXWU/lF4SekFIVdlI3M10GDEJFcXmWuzvj4p/BYDPeKu7KKwkeYjU17ZCSTwAxmxGupFhlYwN0LJLgJ3wUU8TfmfQ4hJJl8ygz4aWaZ0VwBrCstEgSoz75Pf6Qkj1q5zHi/xy41nW/AbAkCKKnM25zBTcXlsZqNtTlnsUV8A8ZLEGA2+zYvISdZtCxkRvsK79s+lw1cAQr/R7wA7dm3uVEDScmh2k/saH/KXdJjN9eAvJ7CBXBNYd/mWHlkJQOPQ+xY3w/mL+t3gmtA9i3RAigxnLdZb0FaEljJGer3bW4tzltLhcMCKPs5rzodaYlnAmegb/rZXNxGUVi8AK15LzsYeYlmEK++81oxT2iaoY0ACm/GeR/VAMG8U8gZ5tRiT/l8JkcbAerk8Y44JiMzgXitttqxoR1UoIkAygLuK6/2Qm6iCE7iDvGRkibbr2gjQNVM7ksn4RRRQbS/yg/v6RKf+a4mAiiT+a995VkcDgogLNZGdktL8eTFmghQboeNVz/6Z+TnINUW5dkY3P3upXi6a6wWAigB52y9fkIjZOgAgdOzbI3s5dLdLtJjjxYCKOH3bL1Bwde9MRu0j1pv7rM9jc+KKOWrVDihhQBK92KOOLLjhgcizjLhGdphxj+Ly62wX+l3IhdkCfDYFG/cx8UtWnjwn1f/zW2rYcfc8l9cLFy0a/YPCgqqWFJvp8wo/ZrVPlDM3qL7VkECKMteKMVT8gvsfzvrL8nHNqaIzLxyj1Ytw1x/HXZzbSHWlqnWHrnbV4oAqtnGAat8Ho4XeGGintetJuVwGb9wL6Yo3E3ceFY5osW6H6wgStj5Zo3f+k2ZT7iwXRQWKIDi+ZUWa79cTGdtnDVlAuz6muUVLQRQlIkFGgyAmB8fLTJr/ln97FrfGZoIoERnyB8BIfPA6WbN/1KEnWu8WBMBlAYX5I+Bv+PdfNms+f/D7oqKjaKwYz8OZTkdtVf6MVBTh19hwN9NWiD67Jmb9j61YKjwZLhHZLc6z8qRPAoNHX2BjqvMeZXbQ+1G5dr/7Id9TvIqM6IFUPImhK0qlDoOjn630CTOw4zxn+3fer9DL5De/SLbeEG4AIpy+S9NE438HUuCnwnjT3u5fqyjr3Gt6w1ms3BJggCKcrJbp2SjjmTVRBNexSRrau1F+Y6/zLke6stHbJO2sbY8e17WTNihW2T7HTPf1P/CrCqiYumkKgq3kGitW6+l1w0ngMcus6WfPFnoOTWDH6vVrZG85XJpPeuMoQRwWWeq8HO3vyL8l7bDHjnHaLsWs+G6Ew8XGkaABeap+F/a+skQfxmBPHX0t98Kz3XwukGl/g69Yt3wsPDaFXx8xBx+vz3T3mdOnVaWpR8PRLN/5WRmZWalnX0gb988ql1U6INTyfMcLaqX/SSK8t523FTmo+dFCfDSQm7zt6MLeYEY9+QlAfhnFjj+ImW/Fsz9+3a8jbCPQv/53Oa9Qx8q5LgnZIpnrnV++ituh0/2IZi/oDm+qXrbOJ475b3YLR1JUhCgJr8AfKNLGoKkIECVbdV4zZk9UpEjBQF8E2rxmnP7JiNGCgK4x3FPIin8y06kSEEAl1X8Xym/thYhkhBg3kBu84z5yJCEAJNHc5uXTEGEJAQYxb+j4rejkSAJAfrxvwDYO7QACVIQoMPXKABTFiACBWDSAoRu5f6YGAVgIgKgAExbAN8t3HsZowBMRAD3byN5zSgAExHAZeUz3HYUgIkIMJd/F1MUgIkIMOlVbjMKwEQE+Cv/QnooABMRIAYFYNICtF/N/QECCsBEBGi00ZPXjAIwEQH+hAIwaQECt1XnNaMATEQAny1P8ZpRACYigHtsM14zCsBEBLCs6MxtRwGYiABzn+U2owBMRIB3xnCbUQAmIsBI/u3UUQAmIkCfRdxmFICJCNBuDQrAlAVoiAIwaQH+tJV7VTUUgIkIUDmRe7dyFICJCOCzpQ6vGQVgIgK4bWjOa0YBmIgAlhVduO0oABMR4P+GcJtRACYiwNuvc5tRACYiwIsfcJtRACYiQPQSbjMKwEQEaIsCMGkBGmzi3kYOBWAiAoQkogBMWQAUgGkL4L05jNeMAjARAdw2RPGaUQAmIoBleVduOwrARASYM5TbjAIwEQEmjOU2owBMRIDh/LvHoQBMRIDeKACTFqDNN9zbFqIATESA+igAkxbgycQAXjMKwEQEqJQYzGtGAZiIAN6bw3nNKAATEcBtfQteMwrATsoiq4q7Vi6vYKiIbAG4JwCgAEysDqAGBWDaAqAATFsAFIBpC4ACMG0BUACmLQAKwLQFQAGYtgAoANMWAAVg4gLgDGDaAqAATFsAFIBpC4ACMG0BUACmLQAKwLQFQAGYtgAoANMWAAVg2gKgAExbABSACQmQy2lDAZgQY9kzwN/FqBCiB5P/YgwKJXxuqfKPdcWgkOKdx/Pf44khIbYJOPVo/icqYESoUS31j/wTAjEeBA1YVvhr/A/GWDAahkHLLJr2j4i4f+RIAuq/AAAAAAAAAAAAAAAAAAAAAAAAAAAAAAAAAACI5P8BCAU3/8oNhQ0AAAAASUVORK5CYII=;" parent="1" vertex="1">
                    <mxGeometry x="564.1" y="226" width="40" height="40" as="geometry"/>
                </mxCell>
            </root>
        </mxGraphModel>
    </diagram>
</mxfile>
